#N canvas 8 50 713 588 10;
#X obj 215 444 throw~ outL;
#X obj 326 444 throw~ outR;
#X obj 56 44 r notes;
#X obj 58 202 pack 0 0 0, f 11;
#X obj 58 154 poly 8, f 11;
#X obj 58 262 route 1 2 3 4 5 6 7 8, f 81;
#X text 24 19 basic polyphonic patch with 8 voices;
#X obj 269 289 voice;
#X obj 340 290 voice;
#X obj 58 288 voice;
#X obj 128 289 voice;
#X obj 551 290 voice;
#X obj 199 289 voice;
#X obj 410 291 voice;
#X obj 481 289 voice;
#X obj 89 180 + 12;
#X obj 128 57 r synth-enabled;
#X obj 52 96 spigot;
#X connect 2 0 17 0;
#X connect 3 0 5 0;
#X connect 4 0 3 0;
#X connect 4 1 15 0;
#X connect 4 2 3 2;
#X connect 5 0 9 0;
#X connect 5 1 10 0;
#X connect 5 2 12 0;
#X connect 5 3 7 0;
#X connect 5 4 8 0;
#X connect 5 5 13 0;
#X connect 5 6 14 0;
#X connect 5 7 11 0;
#X connect 7 0 0 0;
#X connect 7 0 1 0;
#X connect 8 0 0 0;
#X connect 8 0 1 0;
#X connect 9 0 0 0;
#X connect 9 0 1 0;
#X connect 10 0 0 0;
#X connect 10 0 1 0;
#X connect 11 0 0 0;
#X connect 11 0 1 0;
#X connect 12 0 1 0;
#X connect 12 0 0 0;
#X connect 13 0 0 0;
#X connect 13 0 1 0;
#X connect 14 0 0 0;
#X connect 14 0 1 0;
#X connect 15 0 3 1;
#X connect 16 0 17 1;
#X connect 17 0 4 0;
