#N canvas 164 40 1062 774 10;
#X obj 224 64 loadbang;
#N canvas 23 50 874 825 test-complete 0;
#X obj 154 51 inlet;
#X text 261 195 open signals needed for test;
#X msg 235 218 \; screenLine1 --Congratulations!-- \; screenLine2 (that is a long word) \; screenLine4 ___\$1 seconds______;
#X connect 0 0 2 0;
#X restore 222 666 pd test-complete;
#X obj 225 608 timer;
#X obj 222 641 / 1000;
#X obj 589 567 little-synth;
#N canvas 6 50 450 300 clear-oled 0;
#X msg 91 123 \; oscOut send /oled/line/1 \; oscOut send /oled/line/2 \; oscOut send /oled/line/3 \; oscOut send /oled/line/4 \; oscOut send /oled/line/5 \;;
#X obj 91 47 r clear-oled;
#X obj 91 83 bng 15 250 50 0 empty empty empty 17 7 0 10 #fcfcfc #000000 #000000;
#X connect 1 0 2 0;
#X connect 2 0 0 0;
#X restore 589 614 pd clear-oled;
#X text 450 16 Hardware test patch;
#N canvas 251 50 874 825 test-check-wifi 0;
#X obj 178 22 inlet;
#X msg 160 190 1;
#X obj 108 224 spigot 0;
#X obj 177 90 t b b;
#X obj 178 630 t b b;
#X msg 652 432 0;
#X obj 178 674 outlet;
#X text 265 89 test instruction;
#X text 256 51 bang starts test;
#X text 302 236 open signals needed for test;
#X text 95 395 test goes here;
#X text 261 640 bang when complete;
#X obj 88 186 r aux;
#X obj 94 279 sel 1;
#X obj 177 54 delay 100;
#X obj 59 101 s clear-oled;
#X msg 209 137 \; screenLine1 WiFi Connected? \; screenLine2 Press AUX When Done \;;
#X connect 0 0 14 0;
#X connect 0 0 15 0;
#X connect 1 0 2 1;
#X connect 2 0 13 0;
#X connect 3 0 1 0;
#X connect 3 1 16 0;
#X connect 4 0 6 0;
#X connect 4 1 5 0;
#X connect 5 0 2 1;
#X connect 12 0 2 0;
#X connect 13 0 4 0;
#X connect 14 0 3 0;
#X restore 269 521 pd test-check-wifi;
#X obj 635 177 loadbang;
#X obj 633 205 metro 1000;
#X obj 633 228 i;
#X obj 633 251 + 1;
#X obj 633 274 % 4;
#X obj 632 295 sel 0 1 2 3;
#X msg 647 357 \; led 1 \;;
#X msg 632 322 \; led 0 \;;
#X msg 670 395 \; led 3 \;;
#X msg 687 432 \; led 5 \;;
#N canvas 76 308 1346 576 knobs 0;
#X obj 177 31 inlet;
#X msg 182 166 1;
#X obj 107 223 spigot 0;
#X obj 107 196 r aux;
#X obj 107 299 sel 1;
#X obj 107 332 t b b;
#X msg 235 255 0;
#X obj 107 376 outlet;
#X obj 177 58 delay 100;
#X msg 491 441 \; screenLine1 \$1 \;;
#X obj 508 53 r knob1;
#X obj 632 52 r knob2;
#X obj 751 53 r knob3;
#X obj 870 51 r knob4;
#X msg 597 355 \; screenLine2 \$1 \;;
#X msg 728 401 \; screenLine3 \$1 \;;
#X msg 860 347 \; screenLine4 \$1 \;;
#X obj 519 137 i;
#X obj 641 137 i;
#X obj 761 139 i;
#X obj 882 137 i;
#X obj 189 392 s clear-oled;
#X obj 491 320 spigot 1;
#X obj 597 320 spigot 1;
#X obj 728 327 spigot 1;
#X obj 860 310 spigot 1;
#X obj 177 90 t b b;
#X obj 1013 130 i;
#X obj 1000 328 spigot 1;
#X obj 1001 44 r vol;
#X msg 1000 365 \; screenLine5 \$1 \;;
#X obj 519 115 * 100;
#X obj 642 115 * 100;
#X obj 761 117 * 100;
#X obj 882 115 * 100;
#X obj 1013 108 * 100;
#X connect 0 0 8 0;
#X connect 1 0 2 1;
#X connect 1 0 22 1;
#X connect 1 0 23 1;
#X connect 1 0 24 1;
#X connect 1 0 25 1;
#X connect 1 0 28 1;
#X connect 2 0 4 0;
#X connect 3 0 2 0;
#X connect 4 0 5 0;
#X connect 5 0 7 0;
#X connect 5 1 6 0;
#X connect 5 1 21 0;
#X connect 6 0 2 1;
#X connect 6 0 22 1;
#X connect 6 0 23 1;
#X connect 6 0 24 1;
#X connect 6 0 25 1;
#X connect 6 0 28 1;
#X connect 8 0 26 0;
#X connect 10 0 31 0;
#X connect 11 0 32 0;
#X connect 12 0 33 0;
#X connect 13 0 34 0;
#X connect 17 0 22 0;
#X connect 18 0 23 0;
#X connect 19 0 24 0;
#X connect 20 0 25 0;
#X connect 22 0 9 0;
#X connect 23 0 14 0;
#X connect 24 0 15 0;
#X connect 25 0 16 0;
#X connect 26 0 1 0;
#X connect 27 0 28 0;
#X connect 28 0 30 0;
#X connect 29 0 35 0;
#X connect 31 0 17 0;
#X connect 32 0 18 0;
#X connect 33 0 19 0;
#X connect 34 0 20 0;
#X connect 35 0 27 0;
#X restore 272 112 pd knobs;
#N canvas 389 50 554 810 keys 0;
#X obj 118 18 inlet;
#X obj 294 752 outlet;
#X obj 118 83 test-key-press 1;
#X obj 294 115 test-key-release 13;
#X obj 118 53 delay 100;
#X obj 118 110 test-key-release 1;
#X obj 118 167 test-key-release 2;
#X obj 117 220 test-key-release 3;
#X obj 117 272 test-key-release 4;
#X obj 118 328 test-key-release 5;
#X obj 119 382 test-key-release 6;
#X obj 118 437 test-key-release 7;
#X obj 118 494 test-key-release 8;
#X obj 117 546 test-key-release 9;
#X obj 118 601 test-key-release 10;
#X obj 118 708 test-key-release 12;
#X obj 294 172 test-key-release 14;
#X obj 293 225 test-key-release 15;
#X obj 293 277 test-key-release 16;
#X obj 294 333 test-key-release 17;
#X obj 295 387 test-key-release 18;
#X obj 294 442 test-key-release 19;
#X obj 294 499 test-key-release 20;
#X obj 293 551 test-key-release 21;
#X obj 294 606 test-key-release 22;
#X obj 295 658 test-key-release 23;
#X obj 294 713 test-key-release 24;
#X obj 119 653 test-key-release 11;
#X obj 118 140 test-key-press 2;
#X obj 117 193 test-key-press 3;
#X obj 117 245 test-key-press 4;
#X obj 118 301 test-key-press 5;
#X obj 119 355 test-key-press 6;
#X obj 118 410 test-key-press 7;
#X obj 118 467 test-key-press 8;
#X obj 117 519 test-key-press 9;
#X obj 118 575 test-key-press 10;
#X obj 118 682 test-key-press 12;
#X obj 294 88 test-key-press 13;
#X obj 294 145 test-key-press 14;
#X obj 293 198 test-key-press 15;
#X obj 293 250 test-key-press 16;
#X obj 294 306 test-key-press 17;
#X obj 295 360 test-key-press 18;
#X obj 294 415 test-key-press 19;
#X obj 294 472 test-key-press 20;
#X obj 293 524 test-key-press 21;
#X obj 294 580 test-key-press 22;
#X obj 295 632 test-key-press 23;
#X obj 294 687 test-key-press 24;
#X obj 119 627 test-key-press 11;
#X obj 463 757 s synth-enabled;
#X msg 463 728 0;
#X obj 461 705 delay 100;
#X msg 19 72 1;
#X obj 19 101 s synth-enabled;
#X connect 0 0 4 0;
#X connect 0 0 54 0;
#X connect 2 0 5 0;
#X connect 3 0 39 0;
#X connect 4 0 2 0;
#X connect 5 0 28 0;
#X connect 6 0 29 0;
#X connect 7 0 30 0;
#X connect 8 0 31 0;
#X connect 9 0 32 0;
#X connect 10 0 33 0;
#X connect 11 0 34 0;
#X connect 12 0 35 0;
#X connect 13 0 36 0;
#X connect 14 0 50 0;
#X connect 15 0 38 0;
#X connect 16 0 40 0;
#X connect 17 0 41 0;
#X connect 18 0 42 0;
#X connect 19 0 43 0;
#X connect 20 0 44 0;
#X connect 21 0 45 0;
#X connect 22 0 46 0;
#X connect 23 0 47 0;
#X connect 24 0 48 0;
#X connect 25 0 49 0;
#X connect 26 0 1 0;
#X connect 26 0 53 0;
#X connect 27 0 37 0;
#X connect 28 0 6 0;
#X connect 29 0 7 0;
#X connect 30 0 8 0;
#X connect 31 0 9 0;
#X connect 32 0 10 0;
#X connect 33 0 11 0;
#X connect 34 0 12 0;
#X connect 35 0 13 0;
#X connect 36 0 14 0;
#X connect 37 0 15 0;
#X connect 38 0 3 0;
#X connect 39 0 16 0;
#X connect 40 0 17 0;
#X connect 41 0 18 0;
#X connect 42 0 19 0;
#X connect 43 0 20 0;
#X connect 44 0 21 0;
#X connect 45 0 22 0;
#X connect 46 0 23 0;
#X connect 47 0 24 0;
#X connect 48 0 25 0;
#X connect 49 0 26 0;
#X connect 50 0 27 0;
#X connect 52 0 51 0;
#X connect 53 0 52 0;
#X connect 54 0 55 0;
#X restore 271 144 pd keys;
#N canvas 238 25 1202 789 headphone 0;
#X obj 177 23 inlet;
#X msg 178 188 1;
#X obj 108 224 spigot 0;
#X obj 177 90 t b b;
#X obj 178 630 t b b;
#X msg 239 669 0;
#X obj 178 674 outlet;
#X text 276 112 test instruction;
#X text 256 51 bang starts test;
#X text 261 195 open signals needed for test;
#X text 45 632 bang when complete;
#X obj 540 573 throw~ outL;
#X obj 108 166 r aux;
#X obj 108 193 sel 1;
#X obj 539 541 *~ 0;
#X obj 177 58 delay 100;
#X msg 210 137 \; screenLine1 Check Headphone \; screenLine3 Press Aux when done \;;
#X obj 627 537 *~ 0;
#X obj 516 229 osc~ 440;
#X obj 517 257 *~ 0.5;
#X obj 628 569 throw~ outR;
#X obj 708 269 sig~;
#X obj 645 404 *~;
#X obj 655 267 sig~;
#X obj 605 403 *~;
#X obj 632 90 i;
#X obj 632 113 + 1;
#X obj 632 136 % 4;
#X obj 631 157 sel 0 1 2 3, f 71;
#X obj 631 21 loadbang;
#X obj 631 44 bng 18 250 50 0 empty empty empty 0 -9 0 10 #fcfcfc #000000 #000000;
#X msg 614 195 0;
#X msg 647 197 0;
#X msg 745 204 0;
#X msg 819 187 0;
#X msg 712 202 1;
#X msg 852 189 1;
#X msg 932 202 1;
#X msg 965 204 1;
#X obj 637 318 lop~ 5;
#X obj 688 331 lop~ 5;
#X obj 632 67 metro 1000;
#X connect 0 0 15 0;
#X connect 1 0 2 1;
#X connect 1 0 14 1;
#X connect 1 0 17 1;
#X connect 2 0 4 0;
#X connect 3 0 1 0;
#X connect 3 1 16 0;
#X connect 4 0 6 0;
#X connect 4 1 5 0;
#X connect 5 0 2 1;
#X connect 5 0 14 1;
#X connect 5 0 17 1;
#X connect 12 0 13 0;
#X connect 13 0 2 0;
#X connect 14 0 11 0;
#X connect 15 0 3 0;
#X connect 17 0 20 0;
#X connect 18 0 19 0;
#X connect 19 0 22 0;
#X connect 19 0 24 0;
#X connect 21 0 40 0;
#X connect 22 0 17 0;
#X connect 23 0 39 0;
#X connect 24 0 14 0;
#X connect 25 0 26 0;
#X connect 26 0 27 0;
#X connect 26 0 25 1;
#X connect 27 0 28 0;
#X connect 28 0 31 0;
#X connect 28 0 32 0;
#X connect 28 1 35 0;
#X connect 28 1 33 0;
#X connect 28 2 34 0;
#X connect 28 2 36 0;
#X connect 28 3 37 0;
#X connect 28 3 38 0;
#X connect 29 0 30 0;
#X connect 30 0 41 0;
#X connect 31 0 23 0;
#X connect 32 0 21 0;
#X connect 33 0 21 0;
#X connect 34 0 23 0;
#X connect 35 0 23 0;
#X connect 36 0 21 0;
#X connect 37 0 23 0;
#X connect 38 0 21 0;
#X connect 39 0 24 1;
#X connect 40 0 22 1;
#X connect 41 0 25 0;
#X restore 272 185 pd headphone;
#N canvas 33 50 874 825 MIDI-out 0;
#X obj 176 23 inlet;
#X msg 160 190 1;
#X obj 108 224 spigot 0;
#X obj 177 90 t b b;
#X obj 101 580 t b b;
#X msg 652 432 0;
#X obj 101 624 outlet;
#X text 451 168 test instruction;
#X text 256 51 bang starts test;
#X text 442 262 open signals needed for test;
#X text 283 410 test goes here;
#X text 184 590 bang when complete;
#X obj 51 111 r aux;
#X obj 101 262 sel 1;
#X obj 180 60 delay 100;
#X obj 45 87 s clear-oled;
#X msg 209 140 \; screenLine1 Test MIDI OUT \; screenLine2 Play and listen \; screenLine3 to external synth \; screenLine4 Press Aux when done \;;
#X connect 0 0 14 0;
#X connect 0 0 15 0;
#X connect 1 0 2 1;
#X connect 2 0 13 0;
#X connect 3 0 1 0;
#X connect 3 1 16 0;
#X connect 4 0 6 0;
#X connect 4 1 5 0;
#X connect 5 0 2 1;
#X connect 12 0 2 0;
#X connect 13 0 4 0;
#X connect 14 0 3 0;
#X restore 272 337 pd MIDI-out;
#N canvas 34 50 874 825 MIDI-in 0;
#X obj 176 32 inlet;
#X msg 160 190 1;
#X obj 108 224 spigot 0;
#X obj 177 90 t b b;
#X obj 101 580 t b b;
#X msg 652 432 0;
#X obj 101 624 outlet;
#X text 311 124 test instruction;
#X text 256 51 bang starts test;
#X text 442 262 open signals needed for test;
#X text 283 410 test goes here;
#X text 184 590 bang when complete;
#X obj 51 111 r aux;
#X obj 101 262 sel 1;
#X obj 177 63 delay 100;
#X obj 45 87 s clear-oled;
#X msg 211 144 \; screenLine1 Test MIDI In \; screenLine2 Play ext. controller \; screenLine3 listen to OG response \; screenLine4 Press Aux when done \;;
#X obj 176 718 s synth-enabled;
#X msg 176 689 0;
#X obj 174 666 delay 100;
#X msg 457 96 1;
#X obj 457 125 s synth-enabled;
#X connect 0 0 14 0;
#X connect 0 0 15 0;
#X connect 0 0 20 0;
#X connect 1 0 2 1;
#X connect 2 0 13 0;
#X connect 3 0 1 0;
#X connect 3 1 16 0;
#X connect 4 0 6 0;
#X connect 4 1 5 0;
#X connect 4 1 19 0;
#X connect 5 0 2 1;
#X connect 12 0 2 0;
#X connect 13 0 4 0;
#X connect 14 0 3 0;
#X connect 18 0 17 0;
#X connect 19 0 18 0;
#X connect 20 0 21 0;
#X restore 273 371 pd MIDI-in;
#N canvas 62 306 624 546 footswitch-press 0;
#X obj 173 28 inlet;
#X msg 160 190 1;
#X obj 107 223 spigot 0;
#X obj 177 90 t b b;
#X obj 107 299 sel 1;
#X obj 111 393 t b b;
#X msg 235 255 0;
#X obj 111 437 outlet;
#X floatatom 11 301 5 0 0 0 - - - 0;
#X obj 85 175 r fs;
#X msg 208 137 \; screenLine1 Press Foot \;;
#X obj 67 401 bng 15 250 50 0 empty empty empty 17 7 0 10 #fcfcfc #000000 #000000;
#X obj 15 463 s led;
#X msg 15 436 1;
#X obj 69 519 s led;
#X msg 70 492 0;
#X obj 74 464 delay 500;
#X obj 179 65 delay 100;
#X obj 45 87 s clear-oled;
#X connect 0 0 17 0;
#X connect 0 0 18 0;
#X connect 1 0 2 1;
#X connect 2 0 4 0;
#X connect 2 0 8 0;
#X connect 3 0 1 0;
#X connect 3 1 10 0;
#X connect 4 0 5 0;
#X connect 5 0 7 0;
#X connect 5 0 11 0;
#X connect 5 1 6 0;
#X connect 6 0 2 1;
#X connect 9 0 2 0;
#X connect 11 0 13 0;
#X connect 11 0 16 0;
#X connect 13 0 12 0;
#X connect 15 0 14 0;
#X connect 16 0 15 0;
#X connect 17 0 3 0;
#X restore 272 425 pd footswitch-press;
#N canvas 17 50 624 546 footswitch-release 0;
#X obj 169 26 inlet;
#X msg 160 190 1;
#X obj 107 223 spigot 0;
#X obj 177 90 t b b;
#X obj 111 393 t b b;
#X msg 235 255 0;
#X obj 111 437 outlet;
#X obj 107 299 sel 0;
#X obj 85 175 r fs;
#X msg 208 137 \; screenLine1 Release Foot \;;
#X obj 80 411 bng 15 250 50 0 empty empty empty 17 7 0 10 #fcfcfc #000000 #000000;
#X obj 28 473 s led;
#X msg 28 446 1;
#X obj 82 529 s led;
#X msg 83 502 0;
#X obj 87 474 delay 500;
#X obj 177 58 delay 100;
#X connect 0 0 16 0;
#X connect 1 0 2 1;
#X connect 2 0 7 0;
#X connect 3 0 1 0;
#X connect 3 1 9 0;
#X connect 4 0 6 0;
#X connect 4 0 10 0;
#X connect 4 1 5 0;
#X connect 5 0 2 1;
#X connect 7 0 4 0;
#X connect 8 0 2 0;
#X connect 10 0 12 0;
#X connect 10 0 15 0;
#X connect 12 0 11 0;
#X connect 14 0 13 0;
#X connect 15 0 14 0;
#X connect 16 0 3 0;
#X restore 272 449 pd footswitch-release;
#N canvas 238 25 1202 789 line-out 0;
#X obj 177 23 inlet;
#X msg 178 188 1;
#X obj 108 224 spigot 0;
#X obj 177 90 t b b;
#X obj 178 630 t b b;
#X msg 239 669 0;
#X obj 178 674 outlet;
#X text 276 112 test instruction;
#X text 256 51 bang starts test;
#X text 261 195 open signals needed for test;
#X text 45 632 bang when complete;
#X obj 540 573 throw~ outL;
#X obj 108 166 r aux;
#X obj 108 193 sel 1;
#X obj 539 541 *~ 0;
#X obj 177 58 delay 100;
#X obj 627 537 *~ 0;
#X obj 516 229 osc~ 440;
#X obj 517 257 *~ 0.5;
#X obj 628 569 throw~ outR;
#X obj 708 269 sig~;
#X obj 645 404 *~;
#X obj 655 267 sig~;
#X obj 605 403 *~;
#X obj 632 90 i;
#X obj 632 113 + 1;
#X obj 632 136 % 4;
#X obj 631 157 sel 0 1 2 3, f 71;
#X obj 631 21 loadbang;
#X obj 631 44 bng 18 250 50 0 empty empty empty 0 -9 0 10 #fcfcfc #000000 #000000;
#X msg 614 195 0;
#X msg 647 197 0;
#X msg 745 204 0;
#X msg 819 187 0;
#X msg 712 202 1;
#X msg 852 189 1;
#X msg 932 202 1;
#X msg 965 204 1;
#X obj 637 318 lop~ 5;
#X obj 688 331 lop~ 5;
#X msg 210 137 \; screenLine1 Check Line Out \; screenLine3 Press Aux when done \;;
#X obj 632 67 metro 1000;
#X connect 0 0 15 0;
#X connect 1 0 2 1;
#X connect 1 0 14 1;
#X connect 1 0 16 1;
#X connect 2 0 4 0;
#X connect 3 0 1 0;
#X connect 3 1 40 0;
#X connect 4 0 6 0;
#X connect 4 1 5 0;
#X connect 5 0 2 1;
#X connect 5 0 14 1;
#X connect 5 0 16 1;
#X connect 12 0 13 0;
#X connect 13 0 2 0;
#X connect 14 0 11 0;
#X connect 15 0 3 0;
#X connect 16 0 19 0;
#X connect 17 0 18 0;
#X connect 18 0 21 0;
#X connect 18 0 23 0;
#X connect 20 0 39 0;
#X connect 21 0 16 0;
#X connect 22 0 38 0;
#X connect 23 0 14 0;
#X connect 24 0 25 0;
#X connect 25 0 26 0;
#X connect 25 0 24 1;
#X connect 26 0 27 0;
#X connect 27 0 30 0;
#X connect 27 0 31 0;
#X connect 27 1 34 0;
#X connect 27 1 32 0;
#X connect 27 2 33 0;
#X connect 27 2 35 0;
#X connect 27 3 36 0;
#X connect 27 3 37 0;
#X connect 28 0 29 0;
#X connect 29 0 41 0;
#X connect 30 0 22 0;
#X connect 31 0 20 0;
#X connect 32 0 20 0;
#X connect 33 0 22 0;
#X connect 34 0 22 0;
#X connect 35 0 20 0;
#X connect 36 0 22 0;
#X connect 37 0 20 0;
#X connect 38 0 23 1;
#X connect 39 0 21 1;
#X connect 41 0 24 0;
#X restore 271 221 pd line-out;
#N canvas 204 50 874 825 mic 0;
#X obj 177 24 inlet;
#X msg 178 188 1;
#X obj 108 224 spigot 0;
#X obj 177 90 t b b;
#X obj 178 630 t b b;
#X msg 260 479 0;
#X obj 178 674 outlet;
#X text 271 114 test instruction;
#X text 256 51 bang starts test;
#X text 213 233 open signals needed for test;
#X text 45 632 bang when complete;
#X obj 108 164 r aux;
#X obj 108 193 sel 1;
#X obj 382 595 *~ 0;
#X obj 177 58 delay 100;
#X obj 73 82 s clear-oled;
#X msg 210 137 \; screenLine1 Check Mic In \; screenLine3 Press Aux when done \;;
#X obj 499 599 *~ 0;
#X obj 580 326 r~ inR;
#X obj 496 677 throw~ outR;
#X obj 406 320 r~ inL;
#X obj 379 673 throw~ outL;
#X obj 402 366 delwrite~ leftdelay 500;
#X obj 368 485 delread~ leftdelay 500;
#X obj 574 367 delwrite~ rightdelay 500;
#X obj 520 482 delread~ rightdelay 500;
#X connect 0 0 14 0;
#X connect 0 0 15 0;
#X connect 1 0 2 1;
#X connect 1 0 13 1;
#X connect 1 0 17 1;
#X connect 2 0 4 0;
#X connect 3 0 1 0;
#X connect 3 1 16 0;
#X connect 4 0 6 0;
#X connect 4 1 5 0;
#X connect 5 0 2 1;
#X connect 5 0 13 1;
#X connect 5 0 17 1;
#X connect 11 0 12 0;
#X connect 12 0 2 0;
#X connect 13 0 21 0;
#X connect 14 0 3 0;
#X connect 17 0 19 0;
#X connect 18 0 24 0;
#X connect 20 0 22 0;
#X connect 23 0 13 0;
#X connect 25 0 17 0;
#X restore 272 256 pd mic;
#N canvas 204 50 874 825 line-in 0;
#X obj 177 24 inlet;
#X msg 178 188 1;
#X obj 108 224 spigot 0;
#X obj 177 90 t b b;
#X obj 178 630 t b b;
#X msg 260 479 0;
#X obj 178 674 outlet;
#X text 271 114 test instruction;
#X text 256 51 bang starts test;
#X text 213 233 open signals needed for test;
#X text 45 632 bang when complete;
#X obj 108 164 r aux;
#X obj 108 193 sel 1;
#X obj 382 595 *~ 0;
#X obj 177 58 delay 100;
#X obj 73 82 s clear-oled;
#X obj 499 599 *~ 0;
#X obj 516 503 r~ inR;
#X obj 496 677 throw~ outR;
#X obj 390 508 r~ inL;
#X obj 379 673 throw~ outL;
#X msg 210 137 \; screenLine1 Check Line In \; screenLine3 Press Aux when done \;;
#X connect 0 0 14 0;
#X connect 0 0 15 0;
#X connect 1 0 2 1;
#X connect 1 0 13 1;
#X connect 1 0 16 1;
#X connect 2 0 4 0;
#X connect 3 0 1 0;
#X connect 3 1 21 0;
#X connect 4 0 6 0;
#X connect 4 1 5 0;
#X connect 5 0 2 1;
#X connect 5 0 13 1;
#X connect 5 0 16 1;
#X connect 11 0 12 0;
#X connect 12 0 2 0;
#X connect 13 0 20 0;
#X connect 14 0 3 0;
#X connect 16 0 18 0;
#X connect 17 0 16 0;
#X connect 19 0 13 0;
#X restore 271 286 pd line-in;
#N canvas 251 50 874 825 USB 0;
#X obj 178 22 inlet;
#X msg 160 190 1;
#X obj 108 224 spigot 0;
#X obj 177 90 t b b;
#X obj 178 630 t b b;
#X msg 652 432 0;
#X obj 178 674 outlet;
#X text 265 89 test instruction;
#X text 256 51 bang starts test;
#X text 302 236 open signals needed for test;
#X text 95 395 test goes here;
#X text 261 640 bang when complete;
#X obj 88 186 r aux;
#X obj 94 279 sel 1;
#X obj 177 54 delay 100;
#X obj 59 101 s clear-oled;
#X msg 209 137 \; screenLine1 Type on USB keyboard \; screenLine2 Press AUX When Done \;;
#X connect 0 0 14 0;
#X connect 0 0 15 0;
#X connect 1 0 2 1;
#X connect 2 0 13 0;
#X connect 3 0 1 0;
#X connect 3 1 16 0;
#X connect 4 0 6 0;
#X connect 4 1 5 0;
#X connect 5 0 2 1;
#X connect 12 0 2 0;
#X connect 13 0 4 0;
#X connect 14 0 3 0;
#X restore 269 495 pd USB;
#X text 751 229 flash the LEDs;
#X text 684 567 for testing keys and midi;
#X connect 0 0 2 0;
#X connect 0 0 18 0;
#X connect 2 0 3 0;
#X connect 3 0 1 0;
#X connect 7 0 2 1;
#X connect 8 0 9 0;
#X connect 9 0 10 0;
#X connect 10 0 11 0;
#X connect 11 0 12 0;
#X connect 11 0 10 1;
#X connect 12 0 13 0;
#X connect 13 0 15 0;
#X connect 13 1 14 0;
#X connect 13 2 16 0;
#X connect 13 3 17 0;
#X connect 18 0 19 0;
#X connect 19 0 20 0;
#X connect 20 0 25 0;
#X connect 21 0 22 0;
#X connect 22 0 23 0;
#X connect 23 0 24 0;
#X connect 24 0 28 0;
#X connect 25 0 26 0;
#X connect 26 0 27 0;
#X connect 27 0 21 0;
#X connect 28 0 7 0;
