#N canvas 571 68 952 806 10;
#X msg 129 297 port 4000;
#X msg 151 346 status;
#X obj 383 571 tgl 15 0 empty empty empty 17 7 0 10 -262144 -1 -1 1
1;
#X obj 522 576 print;
#X msg 445 416 send 0 1 2 3;
#X msg 446 450 connect localhost 4001;
#X obj 144 392 udpreceive;
#X obj 144 436 unpackOSC;
#X obj 380 415 packOSC;
#X obj 383 528 udpsend;
#X floatatom 608 306 5 0 0 0 - - -, f 5;
#X msg 444 372 send /led \$1;
#X obj 579 335 % 8;
#X obj 284 550 timer;
#X floatatom 284 572 5 0 0 0 - - -, f 5;
#X obj 312 507 bng 15 250 50 0 empty empty empty 17 7 0 10 -262144
-1 -1;
#X obj 283 505 bng 15 250 50 0 empty empty empty 17 7 0 10 -262144
-1 -1;
#X obj 708 233 tgl 15 0 empty empty empty 17 7 0 10 -262144 -1 -1 0
1;
#X obj 611 258 bng 15 250 50 0 empty empty empty 17 7 0 10 -262144
-1 -1;
#X obj 355 149 loadbang;
#X obj 759 346 f;
#X obj 811 349 + 1;
#X obj 138 675 dac~;
#X obj 151 635 osc~;
#X floatatom 144 538 5 0 0 0 - - -, f 5;
#X obj 146 602 + 100;
#X obj 144 571 * 100;
#X obj 651 371 random 8;
#X obj 694 116 metro 2000;
#X obj 650 64 tgl 15 0 empty empty empty 17 7 0 10 -262144 -1 -1 0
1;
#X obj 752 244 + 50;
#X obj 752 201 random 1000;
#X obj 146 494 routeOSC /led;
#X obj 697 291 metro 100;
#X obj 39 496 routeOSC /key;
#X floatatom 38 534 5 0 0 0 - - -, f 5;
#X msg 310 273;
#X obj 174 471 print;
#X msg 160 96 sendtyped /oled ib 2 2 3 4 5 6 7 8 4 53 6 7 5 3 4 65
78 6 4 25 2 4 6;
#X connect 0 0 6 0;
#X connect 1 0 6 0;
#X connect 4 0 9 0;
#X connect 5 0 9 0;
#X connect 6 0 7 0;
#X connect 7 0 32 0;
#X connect 7 0 34 0;
#X connect 7 0 37 0;
#X connect 8 0 9 0;
#X connect 9 0 2 0;
#X connect 10 0 12 0;
#X connect 11 0 8 0;
#X connect 12 0 11 0;
#X connect 13 0 14 0;
#X connect 15 0 13 1;
#X connect 16 0 13 0;
#X connect 17 0 33 0;
#X connect 18 0 10 0;
#X connect 19 0 0 0;
#X connect 19 0 5 0;
#X connect 19 0 17 0;
#X connect 20 0 21 0;
#X connect 21 0 20 1;
#X connect 23 0 22 0;
#X connect 23 0 22 1;
#X connect 24 0 26 0;
#X connect 25 0 23 0;
#X connect 26 0 25 0;
#X connect 27 0 11 0;
#X connect 28 0 31 0;
#X connect 29 0 28 0;
#X connect 31 0 30 0;
#X connect 32 0 24 0;
#X connect 33 0 20 0;
#X connect 33 0 27 0;
#X connect 34 0 35 0;
#X connect 38 0 8 0;
