#N canvas 806 349 738 450 10;
#X obj 140 306 readsf~ 2;
#X obj 138 350 dac~, f 6;
#X msg 274 130 \; pd dsp 1, f 10;
#X obj 274 100 loadbang;
#X msg 237 195 1;
#X msg 70 196 open /tmp/sound.wav;
#X obj 129 104 loadbang;
#X obj 129 126 t b b;
#X obj 159 155 delay 100;
#X connect 0 0 1 0;
#X connect 0 1 1 1;
#X connect 3 0 2 0;
#X connect 4 0 0 0;
#X connect 5 0 0 0;
#X connect 6 0 7 0;
#X connect 7 0 8 0;
#X connect 7 1 5 0;
#X connect 8 0 4 0;
