#N canvas 518 50 1256 936 10;
#X msg 122 253 port 4000;
#X msg 144 302 status;
#X obj 383 571 tgl 15 0 empty empty empty 17 7 0 10 -262144 -1 -1 1
1;
#X msg 445 416 send 0 1 2 3;
#X msg 446 450 connect localhost 4001;
#X obj 137 348 udpreceive;
#X obj 133 382 unpackOSC;
#X obj 380 415 packOSC;
#X obj 383 528 udpsend;
#X floatatom 608 306 5 0 0 0 - - -, f 5;
#X msg 444 372 send /led \$1;
#X obj 579 335 % 8;
#X obj 152 547 timer;
#X floatatom 152 569 5 0 0 0 - - -, f 5;
#X obj 181 517 bng 15 250 50 0 empty empty empty 17 7 0 10 -262144
-1 -1;
#X obj 152 515 bng 15 250 50 0 empty empty empty 17 7 0 10 -262144
-1 -1;
#X obj 401 232 tgl 15 0 empty empty empty 17 7 0 10 -262144 -1 -1 0
1;
#X obj 611 258 bng 15 250 50 0 empty empty empty 17 7 0 10 -262144
-1 -1;
#X obj 464 89 loadbang;
#X obj 765 349 f;
#X obj 811 349 + 1;
#X obj 761 555 dac~;
#X obj 845 511 osc~;
#X floatatom 837 417 5 0 0 0 - - -, f 5;
#X obj 840 478 + 100;
#X obj 838 447 * 100;
#X obj 671 80 tgl 15 0 empty empty empty 17 7 0 10 -262144 -1 -1 0
1;
#X obj 752 244 + 50;
#X obj 752 201 random 1000;
#X obj 837 376 routeOSC /led;
#X obj 39 496 routeOSC /key;
#X obj 845 533 *~ 0.5;
#X obj 725 480 osc~;
#X obj 722 506 *~ 0.5;
#X obj 713 401 sig~;
#X obj 713 423 lop~ 5;
#X obj 230 463 routeOSC /encoder;
#X obj 230 489 unpack 0 0 0;
#X floatatom 229 520 5 0 0 0 - - -, f 5;
#X floatatom 274 521 5 0 0 0 - - -, f 5;
#X floatatom 318 523 5 0 0 0 - - -, f 5;
#X msg 399 320 send /getkeys;
#X obj 357 28 bng 15 250 50 0 empty empty empty 17 7 0 10 -262144 -1
-1;
#X obj 357 48 t b b;
#X obj 151 489 t b b;
#X floatatom 472 233 5 10 1000 0 - - -, f 5;
#X obj 613 557 routeOSC /knobs;
#X obj 671 640 vsl 15 128 0 1023 0 0 empty empty empty 0 -9 0 10 -262144
-1 -1 7436 1;
#X obj 686 640 vsl 15 128 0 1023 0 0 empty empty empty 0 -9 0 10 -262144
-1 -1 6902 1;
#X obj 709 640 vsl 15 128 0 1023 0 0 empty empty empty 0 -9 0 10 -262144
-1 -1 6480 1;
#X obj 732 640 vsl 15 128 0 1023 0 0 empty empty empty 0 -9 0 10 -262144
-1 -1 6307 1;
#X obj 755 640 vsl 15 128 0 1023 0 0 empty empty empty 0 -9 0 10 -262144
-1 -1 12700 1;
#X obj 663 606 unpack 0 0 0 0 0;
#X obj 294 202 tgl 15 0 empty empty empty 17 7 0 10 -262144 -1 -1 1
1;
#X floatatom 365 203 5 10 1000 0 - - -, f 5;
#X obj 299 236 metro 100;
#X msg 286 288 send /getknobs;
#X floatatom 663 796 5 0 0 0 - - -, f 5;
#X floatatom 693 828 5 0 0 0 - - -, f 5;
#X floatatom 713 795 5 0 0 0 - - -, f 5;
#X floatatom 751 819 5 0 0 0 - - -, f 5;
#X floatatom 754 794 5 0 0 0 - - -, f 5;
#X obj 108 420 routeOSC /thousand;
#X obj 39 525 unpack;
#X floatatom 34 553 5 0 0 0 - - -, f 5;
#X floatatom 81 555 5 0 0 0 - - -, f 5;
#X obj 41 628 pack;
#X obj 41 653 s notes;
#X obj 693 847 / 1024;
#X obj 694 878 s knob2;
#X obj 633 838 / 1024;
#X obj 755 851 / 1024;
#X obj 817 849 / 1024;
#X obj 634 869 s knob1;
#X obj 756 882 s knob3;
#X obj 818 880 s knob4;
#X obj -6 607 print;
#X obj 77 581 / 1;
#X obj 751 302 bng 15 250 50 0 empty empty empty 17 7 0 10 -262144
-1 -1;
#X obj 408 275 metro 100;
#X obj 31 575 + 60;
#X msg 497 168 send /ready;
#X obj 671 111 metro 10;
#N canvas 7 50 739 531 soundIO 0;
#X obj 554 304 dac~;
#X obj 524 264 tb_peakcomp~ -10 8 10 100 0;
#X obj 618 151 catch~ outR;
#X obj 434 157 catch~ outL;
#X obj 312 248 env~ 16384;
#X obj 312 270 / 100;
#X obj 312 292 * 7;
#X obj 412 246 env~ 16384;
#X obj 412 268 / 100;
#X obj 412 290 * 7;
#X obj 246 466 outlet;
#X obj 141 49 adc~;
#X obj 47 160 env~ 16384;
#X obj 47 182 / 100;
#X obj 47 204 * 7;
#X obj 192 161 env~ 16384;
#X obj 192 183 / 100;
#X obj 192 205 * 7;
#X obj 225 359 pack 0 0 0 0, f 18;
#X obj 235 98 s~ inR;
#X obj 49 83 s~ inL;
#X msg 246 444 sendtyped /vumeter iiii \$1 \$2 \$3 \$4;
#X connect 1 0 0 0;
#X connect 1 1 0 1;
#X connect 2 0 1 1;
#X connect 2 0 7 0;
#X connect 3 0 1 0;
#X connect 3 0 4 0;
#X connect 4 0 5 0;
#X connect 5 0 6 0;
#X connect 6 0 18 2;
#X connect 7 0 8 0;
#X connect 8 0 9 0;
#X connect 9 0 18 3;
#X connect 11 0 12 0;
#X connect 11 0 20 0;
#X connect 11 1 15 0;
#X connect 11 1 19 0;
#X connect 12 0 13 0;
#X connect 13 0 14 0;
#X connect 14 0 18 0;
#X connect 15 0 16 0;
#X connect 16 0 17 0;
#X connect 17 0 18 1;
#X connect 18 0 21 0;
#X connect 21 0 10 0;
#X restore 136 709 pd soundIO;
#X connect 0 0 5 0;
#X connect 1 0 5 0;
#X connect 3 0 8 0;
#X connect 4 0 8 0;
#X connect 5 0 6 0;
#X connect 6 0 30 0;
#X connect 6 0 36 0;
#X connect 6 0 46 0;
#X connect 6 0 62 0;
#X connect 7 0 8 0;
#X connect 8 0 2 0;
#X connect 9 0 11 0;
#X connect 10 0 7 0;
#X connect 11 0 10 0;
#X connect 12 0 13 0;
#X connect 14 0 12 1;
#X connect 15 0 12 0;
#X connect 16 0 79 0;
#X connect 17 0 9 0;
#X connect 18 0 0 0;
#X connect 18 0 4 0;
#X connect 18 0 53 0;
#X connect 19 0 20 0;
#X connect 19 0 9 0;
#X connect 20 0 19 1;
#X connect 22 0 31 0;
#X connect 23 0 25 0;
#X connect 24 0 22 0;
#X connect 25 0 24 0;
#X connect 26 0 82 0;
#X connect 28 0 27 0;
#X connect 29 0 23 0;
#X connect 30 0 63 0;
#X connect 32 0 33 0;
#X connect 33 0 21 0;
#X connect 33 0 21 1;
#X connect 34 0 35 0;
#X connect 35 0 32 0;
#X connect 36 0 37 0;
#X connect 37 0 38 0;
#X connect 37 1 39 0;
#X connect 37 2 40 0;
#X connect 41 0 7 0;
#X connect 42 0 43 0;
#X connect 44 0 15 0;
#X connect 44 1 14 0;
#X connect 45 0 79 1;
#X connect 46 0 52 0;
#X connect 47 0 57 0;
#X connect 48 0 58 0;
#X connect 49 0 59 0;
#X connect 50 0 60 0;
#X connect 51 0 61 0;
#X connect 52 0 47 0;
#X connect 52 1 48 0;
#X connect 52 2 49 0;
#X connect 52 3 50 0;
#X connect 52 4 51 0;
#X connect 53 0 55 0;
#X connect 54 0 55 1;
#X connect 55 0 56 0;
#X connect 56 0 7 0;
#X connect 57 0 70 0;
#X connect 58 0 68 0;
#X connect 59 0 71 0;
#X connect 60 0 72 0;
#X connect 63 0 64 0;
#X connect 63 1 65 0;
#X connect 64 0 80 0;
#X connect 65 0 77 0;
#X connect 66 0 67 0;
#X connect 68 0 69 0;
#X connect 70 0 73 0;
#X connect 71 0 74 0;
#X connect 72 0 75 0;
#X connect 77 0 66 1;
#X connect 78 0 19 0;
#X connect 79 0 41 0;
#X connect 80 0 66 0;
#X connect 81 0 7 0;
#X connect 83 0 7 0;
