#N canvas 274 78 1318 967 10;
#X msg 200 253 port 4000;
#X msg 233 298 status;
#X obj 472 567 tgl 15 0 empty empty empty 17 7 0 10 -262144 -1 -1 1
1;
#X msg 534 412 send 0 1 2 3;
#X msg 533 443 connect localhost 4001;
#X obj 226 344 udpreceive;
#X obj 222 378 unpackOSC;
#X obj 469 411 packOSC;
#X obj 472 524 udpsend;
#X msg 797 298 send /led \$1;
#X obj 241 543 timer;
#X floatatom 241 565 5 0 0 0 - - -, f 5;
#X obj 270 513 bng 15 250 50 0 empty empty empty 17 7 0 10 -262144
-1 -1;
#X obj 241 511 bng 15 250 50 0 empty empty empty 17 7 0 10 -262144
-1 -1;
#X obj 490 228 tgl 15 0 empty empty empty 17 7 0 10 -262144 -1 -1 0
1;
#X obj 649 80 loadbang;
#X obj 128 492 routeOSC /key;
#X obj 319 459 routeOSC /encoder;
#X obj 319 485 unpack 0 0 0;
#X floatatom 318 516 5 0 0 0 - - -, f 5;
#X floatatom 363 517 5 0 0 0 - - -, f 5;
#X floatatom 407 519 5 0 0 0 - - -, f 5;
#X msg 488 316 send /getkeys;
#X obj 446 24 bng 15 250 50 0 empty empty empty 17 7 0 10 -262144 -1
-1;
#X obj 446 44 t b b;
#X obj 240 485 t b b;
#X floatatom 561 229 5 10 1000 0 - - -, f 5;
#X obj 703 549 routeOSC /knobs;
#X obj 745 634 vsl 15 128 0 1023 0 0 empty empty empty 0 -9 0 10 -262144
-1 -1 6418 1;
#X obj 772 633 vsl 15 128 0 1023 0 0 empty empty empty 0 -9 0 10 -262144
-1 -1 10192 1;
#X obj 798 636 vsl 15 128 0 1023 0 0 empty empty empty 0 -9 0 10 -262144
-1 -1 3066 1;
#X obj 821 636 vsl 15 128 0 1023 0 0 empty empty empty 0 -9 0 10 -262144
-1 -1 2694 1;
#X obj 844 636 vsl 15 128 0 1023 0 0 empty empty empty 0 -9 0 10 -262144
-1 -1 6915 1;
#X obj 734 590 unpack 0 0 0 0 0;
#X obj 395 198 tgl 15 0 empty empty empty 17 7 0 10 -262144 -1 -1 1
1;
#X floatatom 454 199 5 10 1000 0 - - -, f 5;
#X obj 388 232 metro 100;
#X msg 375 284 send /getknobs;
#X floatatom 752 792 5 0 0 0 - - -, f 5;
#X floatatom 782 824 5 0 0 0 - - -, f 5;
#X floatatom 802 791 5 0 0 0 - - -, f 5;
#X floatatom 840 815 5 0 0 0 - - -, f 5;
#X floatatom 843 790 5 0 0 0 - - -, f 5;
#X obj 233 426 routeOSC /thousand;
#X obj 128 521 unpack;
#X floatatom 123 549 5 0 0 0 - - -, f 5;
#X floatatom 170 551 5 0 0 0 - - -, f 5;
#X obj 134 645 pack;
#X obj 101 739 s notes;
#X obj 782 843 / 1024;
#X obj 783 874 s knob2;
#X obj 722 834 / 1024;
#X obj 844 847 / 1024;
#X obj 906 845 / 1024;
#X obj 723 865 s knob1;
#X obj 845 878 s knob3;
#X obj 907 876 s knob4;
#X obj 166 577 / 1;
#X obj 497 271 metro 100;
#X obj 120 571 + 60;
#N canvas 404 64 739 531 soundIO 0;
#X obj 554 304 dac~;
#X obj 524 264 tb_peakcomp~ -10 8 10 100 0;
#X obj 618 151 catch~ outR;
#X obj 434 157 catch~ outL;
#X obj 312 270 / 100;
#X obj 312 292 * 7;
#X obj 412 268 / 100;
#X obj 412 290 * 7;
#X obj 246 466 outlet;
#X obj 141 49 adc~;
#X obj 47 182 / 100;
#X obj 47 204 * 7;
#X obj 192 183 / 100;
#X obj 192 205 * 7;
#X obj 225 359 pack 0 0 0 0, f 18;
#X obj 235 98 s~ inR;
#X obj 49 83 s~ inL;
#X obj 193 235 - 2;
#X obj 93 288 expr if ($f1 > 0 \, $f1 \, 0);
#X obj 32 248 - 2;
#X obj 11 323 expr if ($f1 > 0 \, $f1 \, 0);
#X msg 245 444 sendtyped /oled/vumeter iiii \$1 \$2 \$3 \$4;
#X obj 47 160 env~ 4096;
#X obj 191 162 env~ 4096;
#X obj 312 249 env~ 4096;
#X obj 412 246 env~ 4096;
#X connect 1 0 0 0;
#X connect 1 1 0 1;
#X connect 2 0 1 1;
#X connect 2 0 25 0;
#X connect 3 0 1 0;
#X connect 3 0 24 0;
#X connect 4 0 5 0;
#X connect 5 0 14 2;
#X connect 6 0 7 0;
#X connect 7 0 14 3;
#X connect 9 0 16 0;
#X connect 9 0 22 0;
#X connect 9 1 15 0;
#X connect 9 1 23 0;
#X connect 10 0 11 0;
#X connect 11 0 19 0;
#X connect 12 0 13 0;
#X connect 13 0 17 0;
#X connect 14 0 21 0;
#X connect 17 0 18 0;
#X connect 18 0 14 1;
#X connect 19 0 20 0;
#X connect 20 0 14 0;
#X connect 21 0 8 0;
#X connect 22 0 10 0;
#X connect 23 0 12 0;
#X connect 24 0 4 0;
#X connect 25 0 6 0;
#X restore 335 330 pd soundIO;
#X obj 82 603 s mvp;
#X obj 292 750 unpackOSC;
#X msg 303 666 port 6000;
#X msg 500 649 send 0 1 2 3;
#X obj 416 672 packOSC;
#X obj 419 785 udpsend;
#X obj 292 772 print;
#X msg 499 680 connect localhost 6000;
#X obj 998 79 f 0;
#X obj 1060 80 + 1;
#X obj 1001 14 tgl 15 0 empty empty empty 17 7 0 10 -262144 -1 -1 0
1;
#X obj 851 47 r bpm;
#X obj 868 75 int;
#X msg 929 290 send /oled/line/3 3: Delay \$1 sec;
#X msg 914 338 send /oled/line/4 4: Not Used;
#X msg 937 394 send /oled/line/5 No Aux Button;
#X msg 918 137 send /oled/line/1 1: \$1 Tempo BPM;
#X obj 929 256 f;
#X obj 921 509 print;
#X msg 1048 434 \; oledLine5 No Aux Button \; screenLine5 Thing \;
;
#X obj 921 462 r screenLine5;
#X msg 658 219 send /ready;
#X obj 822 269 % 8;
#X msg 922 186 send /oled/line/2 2: \$1;
#X obj 1010 43 metro 150;
#X obj 157 426 print;
#X msg 150 131 \; pd dsp 1;
#X obj 132 57 loadbang;
#X obj 47 139 print Running;
#X obj 132 91 delay 100;
#X connect 0 0 5 0;
#X connect 1 0 5 0;
#X connect 3 0 8 0;
#X connect 4 0 8 0;
#X connect 5 0 6 0;
#X connect 6 0 16 0;
#X connect 6 0 17 0;
#X connect 6 0 27 0;
#X connect 6 0 43 0;
#X connect 7 0 8 0;
#X connect 8 0 2 0;
#X connect 9 0 7 0;
#X connect 10 0 11 0;
#X connect 12 0 10 1;
#X connect 13 0 10 0;
#X connect 14 0 58 0;
#X connect 15 0 0 0;
#X connect 15 0 4 0;
#X connect 15 0 34 0;
#X connect 16 0 44 0;
#X connect 17 0 18 0;
#X connect 18 0 19 0;
#X connect 18 1 20 0;
#X connect 18 2 21 0;
#X connect 22 0 7 0;
#X connect 23 0 24 0;
#X connect 25 0 13 0;
#X connect 25 1 12 0;
#X connect 26 0 58 1;
#X connect 27 0 33 0;
#X connect 28 0 38 0;
#X connect 29 0 39 0;
#X connect 30 0 40 0;
#X connect 31 0 41 0;
#X connect 32 0 42 0;
#X connect 33 0 28 0;
#X connect 33 1 29 0;
#X connect 33 2 30 0;
#X connect 33 3 31 0;
#X connect 33 4 32 0;
#X connect 34 0 36 0;
#X connect 35 0 36 1;
#X connect 36 0 37 0;
#X connect 37 0 7 0;
#X connect 38 0 51 0;
#X connect 39 0 49 0;
#X connect 40 0 52 0;
#X connect 41 0 53 0;
#X connect 44 0 45 0;
#X connect 44 1 46 0;
#X connect 45 0 59 0;
#X connect 46 0 57 0;
#X connect 47 0 48 0;
#X connect 49 0 50 0;
#X connect 51 0 54 0;
#X connect 52 0 55 0;
#X connect 53 0 56 0;
#X connect 57 0 47 1;
#X connect 58 0 22 0;
#X connect 59 0 47 0;
#X connect 59 0 61 0;
#X connect 60 0 7 0;
#X connect 62 0 67 0;
#X connect 64 0 66 0;
#X connect 68 0 66 0;
#X connect 69 0 70 0;
#X connect 69 0 78 0;
#X connect 69 0 84 0;
#X connect 69 0 83 0;
#X connect 70 0 69 1;
#X connect 71 0 85 0;
#X connect 72 0 73 0;
#X connect 73 0 77 0;
#X connect 74 0 7 0;
#X connect 75 0 7 0;
#X connect 76 0 7 0;
#X connect 77 0 7 0;
#X connect 77 0 65 0;
#X connect 78 0 74 0;
#X connect 81 0 79 0;
#X connect 82 0 7 0;
#X connect 83 0 9 0;
#X connect 84 0 7 0;
#X connect 85 0 69 0;
#X connect 88 0 90 0;
#X connect 90 0 87 0;
#X connect 90 0 89 0;
