#N canvas 291 57 1332 938 10;
#X msg 741 341 port 4000;
#X obj 265 593 tgl 15 0 empty empty empty 17 7 0 10 -262144 -1 -1 1
1;
#X msg 374 416 connect localhost 4001;
#X obj 741 370 udpreceive;
#X obj 741 399 unpackOSC;
#X obj 225 513 packOSC;
#X obj 265 557 udpsend;
#X msg 544 101 send /led \$1;
#X obj 637 507 routeOSC /key;
#X obj 897 500 routeOSC /knobs;
#X obj 896 564 vsl 15 128 0 1023 0 0 empty empty empty 0 -9 0 10 -262144
-1 -1 6778 1;
#X obj 942 564 vsl 15 128 0 1023 0 0 empty empty empty 0 -9 0 10 -262144
-1 -1 6791 1;
#X obj 989 565 vsl 15 128 0 1023 0 0 empty empty empty 0 -9 0 10 -262144
-1 -1 7138 1;
#X obj 1035 564 vsl 15 128 0 1023 0 0 empty empty empty 0 -9 0 10 -262144
-1 -1 9224 1;
#X obj 1082 565 vsl 15 128 0 1023 0 0 empty empty empty 0 -9 0 10 -262144
-1 -1 9224 1;
#X obj 896 530 unpack 0 0 0 0 0, f 27;
#X obj 64 386 tgl 15 0 empty empty empty 17 7 0 10 -262144 -1 -1 1
1;
#X floatatom 117 386 5 10 1000 0 - - -, f 5;
#X msg 64 448 send /getknobs;
#X floatatom 863 735 5 0 0 0 - - -, f 5;
#X floatatom 931 741 5 0 0 0 - - -, f 5;
#X floatatom 998 734 5 0 0 0 - - -, f 5;
#X floatatom 1067 739 5 0 0 0 - - -, f 5;
#X obj 735 642 unpack;
#X floatatom 726 685 5 0 0 0 - - -, f 5;
#X floatatom 773 687 5 0 0 0 - - -, f 5;
#X obj 745 758 pack;
#X obj 745 788 s notes;
#X obj 931 760 / 1024;
#X obj 931 784 s knob2;
#X obj 863 757 / 1024;
#X obj 998 757 / 1024;
#X obj 1067 763 / 1024;
#X obj 863 783 s knob1;
#X obj 998 785 s knob3;
#X obj 1067 786 s knob4;
#X obj 779 728 / 1;
#N canvas 409 50 1130 629 soundIO 0;
#X obj 537 356 dac~;
#X obj 524 264 tb_peakcomp~ -10 8 10 100 0;
#X obj 581 44 catch~ outR;
#X obj 439 46 catch~ outL;
#X obj 312 270 / 100;
#X obj 312 292 * 7;
#X obj 412 268 / 100;
#X obj 412 290 * 7;
#X obj 141 49 adc~;
#X obj 47 182 / 100;
#X obj 47 204 * 7;
#X obj 192 183 / 100;
#X obj 192 205 * 7;
#X obj 225 359 pack 0 0 0 0, f 18;
#X obj 235 98 s~ inR;
#X obj 49 83 s~ inL;
#X obj 193 235 - 2;
#X obj 93 288 expr if ($f1 > 0 \, $f1 \, 0);
#X obj 32 248 - 2;
#X obj 11 323 expr if ($f1 > 0 \, $f1 \, 0);
#X msg 229 395 sendtyped /oled/vumeter iiii \$1 \$2 \$3 \$4;
#X obj 47 160 env~ 4096;
#X obj 191 162 env~ 4096;
#X obj 312 249 env~ 4096;
#X obj 412 246 env~ 4096;
#X obj 235 431 s oscOut;
#X obj 442 171 *~;
#X obj 479 137 lop~ 5;
#X obj 497 67 r vol;
#X obj 479 111 sig~;
#X obj 594 194 *~;
#X obj 631 160 lop~ 5;
#X obj 640 86 r vol;
#X obj 631 134 sig~;
#X obj 497 89 *;
#X obj 631 110 *;
#X connect 1 0 0 0;
#X connect 1 1 0 1;
#X connect 2 0 30 0;
#X connect 3 0 26 0;
#X connect 4 0 5 0;
#X connect 5 0 13 2;
#X connect 6 0 7 0;
#X connect 7 0 13 3;
#X connect 8 0 15 0;
#X connect 8 0 21 0;
#X connect 8 1 14 0;
#X connect 8 1 22 0;
#X connect 9 0 10 0;
#X connect 10 0 18 0;
#X connect 11 0 12 0;
#X connect 12 0 16 0;
#X connect 13 0 20 0;
#X connect 16 0 17 0;
#X connect 17 0 13 1;
#X connect 18 0 19 0;
#X connect 19 0 13 0;
#X connect 20 0 25 0;
#X connect 21 0 9 0;
#X connect 22 0 11 0;
#X connect 23 0 4 0;
#X connect 24 0 6 0;
#X connect 26 0 23 0;
#X connect 26 0 1 0;
#X connect 27 0 26 1;
#X connect 28 0 34 0;
#X connect 28 0 34 1;
#X connect 29 0 27 0;
#X connect 30 0 24 0;
#X connect 30 0 1 1;
#X connect 31 0 30 1;
#X connect 32 0 35 1;
#X connect 32 0 35 0;
#X connect 33 0 31 0;
#X connect 34 0 29 0;
#X connect 35 0 33 0;
#X restore 49 219 pd soundIO;
#X msg 193 378 send /ready;
#X obj 544 74 % 8;
#X msg 150 131 \; pd dsp 1;
#X obj 132 57 loadbang;
#X obj 47 139 print Running;
#X obj 132 91 delay 100;
#X obj 544 47 r led;
#X obj 264 429 r oscOut;
#N canvas 6 50 1215 407 screenLines 0;
#X obj 110 173 list append;
#X obj 110 198 list trim;
#X obj 137 110 t b l;
#X msg 35 138 send /oled/line/1;
#X obj 110 223 s oscOut;
#X obj 137 78 list;
#X obj 135 44 r screenLine1;
#X obj 297 169 list append;
#X obj 297 194 list trim;
#X obj 324 106 t b l;
#X obj 297 219 s oscOut;
#X obj 324 74 list;
#X obj 505 198 list trim;
#X obj 532 110 t b l;
#X obj 505 223 s oscOut;
#X obj 532 78 list;
#X obj 505 173 list append;
#X obj 697 170 list append;
#X obj 697 195 list trim;
#X obj 724 107 t b l;
#X obj 697 220 s oscOut;
#X obj 724 75 list;
#X obj 914 170 list append;
#X obj 914 195 list trim;
#X obj 941 107 t b l;
#X obj 914 220 s oscOut;
#X obj 941 75 list;
#X obj 322 40 r screenLine2;
#X obj 530 44 r screenLine3;
#X obj 722 41 r screenLine4;
#X obj 939 41 r screenLine5;
#X msg 222 134 send /oled/line/2;
#X msg 430 138 send /oled/line/3;
#X msg 622 136 send /oled/line/4;
#X msg 839 135 send /oled/line/5;
#X connect 0 0 1 0;
#X connect 1 0 4 0;
#X connect 2 0 3 0;
#X connect 2 1 0 1;
#X connect 3 0 0 0;
#X connect 5 0 2 0;
#X connect 6 0 5 0;
#X connect 7 0 8 0;
#X connect 8 0 10 0;
#X connect 9 0 31 0;
#X connect 9 1 7 1;
#X connect 11 0 9 0;
#X connect 12 0 14 0;
#X connect 13 0 32 0;
#X connect 13 1 16 1;
#X connect 15 0 13 0;
#X connect 16 0 12 0;
#X connect 17 0 18 0;
#X connect 18 0 20 0;
#X connect 19 0 33 0;
#X connect 19 1 17 1;
#X connect 21 0 19 0;
#X connect 22 0 23 0;
#X connect 23 0 25 0;
#X connect 24 0 34 0;
#X connect 24 1 22 1;
#X connect 26 0 24 0;
#X connect 27 0 11 0;
#X connect 28 0 15 0;
#X connect 29 0 21 0;
#X connect 30 0 26 0;
#X connect 31 0 7 0;
#X connect 32 0 16 0;
#X connect 33 0 17 0;
#X connect 34 0 22 0;
#X restore 50 192 pd screenLines;
#X obj 64 415 metro 50;
#X obj 727 726 + 59;
#X obj 535 662 sel 100;
#X msg 535 695 1;
#X msg 580 695 0;
#X obj 529 789 s aux;
#X obj 598 579 route 0 25;
#X obj 633 689 sel 100;
#X msg 633 722 1;
#X msg 679 723 0;
#X obj 633 791 s fs;
#X obj 403 89 t b b;
#X obj 403 52 loadbang;
#X floatatom 1134 741 5 0 0 0 - - -, f 5;
#X obj 1134 765 / 1024;
#X obj 1133 788 s vol;
#X obj 544 129 s oscOut;
#X text 292 594 connected to mother;
#N canvas 543 138 1029 578 neoPixels 0;
#X obj 632 142 tgl 15 0 empty empty empty 17 7 0 10 -262144 -1 -1 0
1;
#X floatatom 683 125 5 10 1000 0 - - -, f 5;
#X obj 631 180 metro 100;
#X msg 488 437 pollintervall 1;
#X obj 928 514 bng 15 250 50 0 empty empty empty 17 7 0 10 -262144
-1 -1;
#X msg 527 469 close;
#X obj 941 622 random 8;
#X obj 872 622 random 5;
#X obj 1013 620 random 65536;
#X obj 318 286 pack 0 0 0;
#X msg 316 318 send /drawPixel \$1 \$2 \$3;
#X obj 931 553 t b b b;
#X obj 347 358 packOSC;
#X msg 484 396 devicename /dev/ttyACM0 \, baud 115200 \, pollintervall
1;
#X msg 635 459 baud 115200;
#X msg 453 366 devicename /dev/ttyUSB0 \, pollintervall 1;
#X obj 794 258 loadbang;
#X obj 909 439 r notes;
#X obj 986 432 r notes_seq;
#X obj 285 63 r notes;
#X obj 355 66 r notes_seq;
#X obj 300 115 unpack;
#X obj 365 166 sel 0;
#X msg 368 194 0;
#X obj 407 216 random 65536;
#X obj 322 209 i;
#X obj 303 160 t f f;
#X obj 284 211 i;
#X obj 284 189 % 5;
#X obj 410 191 bang;
#X floatatom 250 251 5 0 0 0 - - -, f 5;
#X floatatom 316 244 5 0 0 0 - - -, f 5;
#X floatatom 251 111 5 0 0 0 - - -, f 5;
#X obj 301 137 - 60;
#X obj 322 187 / 5;
#N canvas 4 50 450 300 slipSerial 0;
#X obj 76 16 inlet;
#X obj 74 240 outlet;
#X obj 261 46 inlet;
#X obj 95 47 mrpeach/slipenc 65536;
#X obj 95 180 mrpeach/slipdec 65536;
#X obj 99 120 comport;
#X connect 0 0 3 0;
#X connect 2 0 5 0;
#X connect 3 0 5 0;
#X connect 4 0 1 0;
#X connect 5 0 4 0;
#X restore 366 548 pd slipSerial;
#X obj 458 70 r zero_notes;
#X obj 556 68 r arp_notes;
#X connect 0 0 2 0;
#X connect 1 0 2 1;
#X connect 3 0 35 1;
#X connect 4 0 11 0;
#X connect 5 0 35 1;
#X connect 9 0 10 0;
#X connect 10 0 12 0;
#X connect 11 0 7 0;
#X connect 11 1 6 0;
#X connect 11 2 8 0;
#X connect 13 0 35 1;
#X connect 14 0 35 1;
#X connect 15 0 35 1;
#X connect 17 0 4 0;
#X connect 18 0 4 0;
#X connect 19 0 21 0;
#X connect 20 0 21 0;
#X connect 21 0 33 0;
#X connect 21 1 22 0;
#X connect 22 0 23 0;
#X connect 22 1 29 0;
#X connect 23 0 9 2;
#X connect 24 0 9 2;
#X connect 25 0 9 1;
#X connect 25 0 31 0;
#X connect 26 0 28 0;
#X connect 26 1 34 0;
#X connect 27 0 9 0;
#X connect 27 0 30 0;
#X connect 28 0 27 0;
#X connect 29 0 24 0;
#X connect 33 0 26 0;
#X connect 34 0 25 0;
#X connect 36 0 21 0;
#X connect 37 0 21 0;
#X restore 49 248 pd neoPixels;
#X connect 0 0 3 0;
#X connect 2 0 6 0;
#X connect 3 0 4 0;
#X connect 4 0 8 0;
#X connect 4 0 9 0;
#X connect 5 0 6 0;
#X connect 6 0 1 0;
#X connect 7 0 63 0;
#X connect 8 0 53 0;
#X connect 9 0 15 0;
#X connect 10 0 19 0;
#X connect 11 0 20 0;
#X connect 12 0 21 0;
#X connect 13 0 22 0;
#X connect 14 0 60 0;
#X connect 15 0 10 0;
#X connect 15 1 11 0;
#X connect 15 2 12 0;
#X connect 15 3 13 0;
#X connect 15 4 14 0;
#X connect 16 0 47 0;
#X connect 17 0 47 1;
#X connect 18 0 5 0;
#X connect 19 0 30 0;
#X connect 20 0 28 0;
#X connect 21 0 31 0;
#X connect 22 0 32 0;
#X connect 23 0 24 0;
#X connect 23 1 25 0;
#X connect 24 0 48 0;
#X connect 25 0 36 0;
#X connect 26 0 27 0;
#X connect 28 0 29 0;
#X connect 30 0 33 0;
#X connect 31 0 34 0;
#X connect 32 0 35 0;
#X connect 36 0 26 1;
#X connect 38 0 5 0;
#X connect 39 0 7 0;
#X connect 41 0 43 0;
#X connect 43 0 40 0;
#X connect 43 0 42 0;
#X connect 44 0 39 0;
#X connect 45 0 5 0;
#X connect 47 0 18 0;
#X connect 48 0 26 0;
#X connect 49 0 50 0;
#X connect 49 1 51 0;
#X connect 50 0 52 0;
#X connect 51 0 52 0;
#X connect 53 0 49 0;
#X connect 53 1 54 0;
#X connect 53 2 23 0;
#X connect 54 0 55 0;
#X connect 54 1 56 0;
#X connect 55 0 57 0;
#X connect 56 0 57 0;
#X connect 58 0 16 0;
#X connect 58 1 2 0;
#X connect 58 1 0 0;
#X connect 59 0 58 0;
#X connect 60 0 61 0;
#X connect 61 0 62 0;
