#N canvas 575 56 952 806 10;
#X msg 129 297 port 4000;
#X msg 151 346 status;
#X obj 383 571 tgl 15 0 empty empty empty 17 7 0 10 -262144 -1 -1 1
1;
#X msg 445 416 send 0 1 2 3;
#X msg 446 450 connect localhost 4001;
#X obj 144 392 udpreceive;
#X obj 144 436 unpackOSC;
#X obj 380 415 packOSC;
#X obj 383 528 udpsend;
#X floatatom 608 306 5 0 0 0 - - -, f 5;
#X msg 444 372 send /led \$1;
#X obj 579 335 % 8;
#X obj 49 358 timer;
#X floatatom 49 380 5 0 0 0 - - -, f 5;
#X obj 77 315 bng 15 250 50 0 empty empty empty 17 7 0 10 -262144 -1
-1;
#X obj 48 313 bng 15 250 50 0 empty empty empty 17 7 0 10 -262144 -1
-1;
#X obj 708 233 tgl 15 0 empty empty empty 17 7 0 10 -262144 -1 -1 0
1;
#X obj 611 258 bng 15 250 50 0 empty empty empty 17 7 0 10 -262144
-1 -1;
#X obj 464 89 loadbang;
#X obj 765 349 f;
#X obj 811 349 + 1;
#X obj 140 736 dac~;
#X obj 195 667 osc~;
#X floatatom 144 538 5 0 0 0 - - -, f 5;
#X obj 190 634 + 100;
#X obj 188 603 * 100;
#X obj 694 116 metro 2000;
#X obj 650 64 tgl 15 0 empty empty empty 17 7 0 10 -262144 -1 -1 0
1;
#X obj 752 244 + 50;
#X obj 752 201 random 1000;
#X obj 144 497 routeOSC /led;
#X obj 39 496 routeOSC /key;
#X floatatom 37 535 5 0 0 0 - - -, f 5;
#N canvas 0 50 450 250 (subpatch) 0;
#X array array1 256 float 2;
#X coords 0 4096 256 0 200 140 1 0 0;
#X restore 673 568 graph;
#X obj 32 585 s key;
#X obj 512 568 r key;
#X obj 513 597 t f b;
#X obj 604 629 + 1;
#X obj 551 626 f 0;
#X floatatom 549 669 5 0 0 0 - - -, f 5;
#X obj 552 647 % 256;
#X obj 497 697 tabwrite array1;
#X obj 195 689 *~ 0.5;
#X obj 104 661 osc~;
#X obj 101 687 *~ 0.5;
#X obj 92 582 sig~;
#X obj 92 604 lop~ 5;
#X obj 230 463 routeOSC /encoder;
#X obj 262 522 unpack 0 0 0;
#X obj 697 291 metro 200;
#X floatatom 260 552 5 0 0 0 - - -, f 5;
#X floatatom 300 612 5 0 0 0 - - -, f 5;
#X floatatom 335 643 5 0 0 0 - - -, f 5;
#X msg 128 111 sendtyped /oledwrite s FUCKCOOOL;
#X connect 0 0 5 0;
#X connect 1 0 5 0;
#X connect 3 0 8 0;
#X connect 4 0 8 0;
#X connect 5 0 6 0;
#X connect 6 0 30 0;
#X connect 6 0 31 0;
#X connect 6 0 47 0;
#X connect 7 0 8 0;
#X connect 8 0 2 0;
#X connect 9 0 11 0;
#X connect 10 0 7 0;
#X connect 11 0 10 0;
#X connect 12 0 13 0;
#X connect 14 0 12 1;
#X connect 15 0 12 0;
#X connect 16 0 49 0;
#X connect 17 0 9 0;
#X connect 18 0 0 0;
#X connect 18 0 4 0;
#X connect 18 0 16 0;
#X connect 19 0 20 0;
#X connect 19 0 9 0;
#X connect 20 0 19 1;
#X connect 22 0 42 0;
#X connect 23 0 25 0;
#X connect 24 0 22 0;
#X connect 25 0 24 0;
#X connect 26 0 29 0;
#X connect 27 0 26 0;
#X connect 29 0 28 0;
#X connect 30 0 23 0;
#X connect 31 0 32 0;
#X connect 32 0 34 0;
#X connect 32 0 45 0;
#X connect 36 0 41 0;
#X connect 36 1 38 0;
#X connect 37 0 38 1;
#X connect 38 0 37 0;
#X connect 38 0 40 0;
#X connect 39 0 41 1;
#X connect 40 0 39 0;
#X connect 43 0 44 0;
#X connect 44 0 21 0;
#X connect 44 0 21 1;
#X connect 45 0 46 0;
#X connect 46 0 43 0;
#X connect 47 0 48 0;
#X connect 48 0 50 0;
#X connect 48 1 51 0;
#X connect 48 2 52 0;
#X connect 49 0 19 0;
#X connect 53 0 7 0;
