#N canvas 282 78 1318 967 10;
#X msg 200 253 port 4000;
#X msg 233 298 status;
#X obj 472 567 tgl 15 0 empty empty empty 17 7 0 10 -262144 -1 -1 1
1;
#X msg 534 412 send 0 1 2 3;
#X msg 533 443 connect localhost 4001;
#X obj 226 344 udpreceive;
#X obj 222 378 unpackOSC;
#X obj 469 411 packOSC;
#X obj 472 524 udpsend;
#X msg 775 309 send /led \$1;
#X obj 241 543 timer;
#X floatatom 241 565 5 0 0 0 - - -, f 5;
#X obj 270 513 bng 15 250 50 0 empty empty empty 17 7 0 10 -262144
-1 -1;
#X obj 241 511 bng 15 250 50 0 empty empty empty 17 7 0 10 -262144
-1 -1;
#X obj 490 228 tgl 15 0 empty empty empty 17 7 0 10 -262144 -1 -1 0
1;
#X obj 649 80 loadbang;
#X obj 128 492 routeOSC /key;
#X obj 319 459 routeOSC /encoder;
#X obj 319 485 unpack 0 0 0;
#X floatatom 318 516 5 0 0 0 - - -, f 5;
#X floatatom 363 517 5 0 0 0 - - -, f 5;
#X floatatom 407 519 5 0 0 0 - - -, f 5;
#X msg 488 316 send /getkeys;
#X obj 446 24 bng 15 250 50 0 empty empty empty 17 7 0 10 -262144 -1
-1;
#X obj 446 44 t b b;
#X obj 240 485 t b b;
#X floatatom 561 229 5 10 1000 0 - - -, f 5;
#X obj 703 549 routeOSC /knobs;
#X obj 745 634 vsl 15 128 0 1023 0 0 empty empty empty 0 -9 0 10 -262144
-1 -1 6816 1;
#X obj 772 633 vsl 15 128 0 1023 0 0 empty empty empty 0 -9 0 10 -262144
-1 -1 8653 1;
#X obj 798 636 vsl 15 128 0 1023 0 0 empty empty empty 0 -9 0 10 -262144
-1 -1 0 1;
#X obj 821 636 vsl 15 128 0 1023 0 0 empty empty empty 0 -9 0 10 -262144
-1 -1 7610 1;
#X obj 844 636 vsl 15 128 0 1023 0 0 empty empty empty 0 -9 0 10 -262144
-1 -1 12688 1;
#X obj 734 590 unpack 0 0 0 0 0;
#X obj 395 198 tgl 15 0 empty empty empty 17 7 0 10 -262144 -1 -1 1
1;
#X floatatom 454 199 5 10 1000 0 - - -, f 5;
#X msg 375 284 send /getknobs;
#X floatatom 752 792 5 0 0 0 - - -, f 5;
#X floatatom 782 824 5 0 0 0 - - -, f 5;
#X floatatom 802 791 5 0 0 0 - - -, f 5;
#X floatatom 840 815 5 0 0 0 - - -, f 5;
#X floatatom 843 790 5 0 0 0 - - -, f 5;
#X obj 233 426 routeOSC /thousand;
#X obj 216 635 unpack;
#X floatatom 207 678 5 0 0 0 - - -, f 5;
#X floatatom 254 680 5 0 0 0 - - -, f 5;
#X obj 226 751 pack;
#X obj 222 812 s notes;
#X obj 782 843 / 1024;
#X obj 783 874 s knob2;
#X obj 722 834 / 1024;
#X obj 844 847 / 1024;
#X obj 906 845 / 1024;
#X obj 723 865 s knob1;
#X obj 845 878 s knob3;
#X obj 907 876 s knob4;
#X obj 260 721 / 1;
#X obj 497 271 metro 100;
#N canvas 405 61 739 531 soundIO 0;
#X obj 537 356 dac~;
#X obj 524 264 tb_peakcomp~ -10 8 10 100 0;
#X obj 618 151 catch~ outR;
#X obj 434 157 catch~ outL;
#X obj 312 270 / 100;
#X obj 312 292 * 7;
#X obj 412 268 / 100;
#X obj 412 290 * 7;
#X obj 246 466 outlet;
#X obj 141 49 adc~;
#X obj 47 182 / 100;
#X obj 47 204 * 7;
#X obj 192 183 / 100;
#X obj 192 205 * 7;
#X obj 225 359 pack 0 0 0 0, f 18;
#X obj 235 98 s~ inR;
#X obj 49 83 s~ inL;
#X obj 193 235 - 2;
#X obj 93 288 expr if ($f1 > 0 \, $f1 \, 0);
#X obj 32 248 - 2;
#X obj 11 323 expr if ($f1 > 0 \, $f1 \, 0);
#X msg 245 444 sendtyped /oled/vumeter iiii \$1 \$2 \$3 \$4;
#X obj 47 160 env~ 4096;
#X obj 191 162 env~ 4096;
#X obj 312 249 env~ 4096;
#X obj 412 246 env~ 4096;
#X connect 1 0 0 0;
#X connect 1 1 0 1;
#X connect 2 0 1 1;
#X connect 2 0 25 0;
#X connect 3 0 1 0;
#X connect 3 0 24 0;
#X connect 4 0 5 0;
#X connect 5 0 14 2;
#X connect 6 0 7 0;
#X connect 7 0 14 3;
#X connect 9 0 16 0;
#X connect 9 0 22 0;
#X connect 9 1 15 0;
#X connect 9 1 23 0;
#X connect 10 0 11 0;
#X connect 11 0 19 0;
#X connect 12 0 13 0;
#X connect 13 0 17 0;
#X connect 14 0 21 0;
#X connect 17 0 18 0;
#X connect 18 0 14 1;
#X connect 19 0 20 0;
#X connect 20 0 14 0;
#X connect 21 0 8 0;
#X connect 22 0 10 0;
#X connect 23 0 12 0;
#X connect 24 0 4 0;
#X connect 25 0 6 0;
#X restore 335 330 pd soundIO;
#X obj 921 509 print;
#X obj 921 462 r screenLine5;
#X msg 545 148 send /ready;
#X obj 776 283 % 8;
#X msg 150 131 \; pd dsp 1;
#X obj 132 57 loadbang;
#X obj 47 139 print Running;
#X obj 132 91 delay 100;
#X obj 796 257 r led;
#X obj 699 222 r oscOut;
#N canvas 5 50 1215 407 screenLines 0;
#X obj 110 173 list append;
#X obj 110 198 list trim;
#X obj 137 110 t b l;
#X msg 35 138 send /oled/line/1;
#X obj 110 223 s oscOut;
#X obj 137 78 list;
#X obj 135 44 r screenLine1;
#X obj 297 169 list append;
#X obj 297 194 list trim;
#X obj 324 106 t b l;
#X obj 297 219 s oscOut;
#X obj 324 74 list;
#X obj 505 198 list trim;
#X obj 532 110 t b l;
#X obj 505 223 s oscOut;
#X obj 532 78 list;
#X obj 505 173 list append;
#X obj 697 170 list append;
#X obj 697 195 list trim;
#X obj 724 107 t b l;
#X obj 697 220 s oscOut;
#X obj 724 75 list;
#X obj 914 170 list append;
#X obj 914 195 list trim;
#X obj 941 107 t b l;
#X obj 914 220 s oscOut;
#X obj 941 75 list;
#X obj 322 40 r screenLine2;
#X obj 530 44 r screenLine3;
#X obj 722 41 r screenLine4;
#X obj 939 41 r screenLine5;
#X msg 222 134 send /oled/line/2;
#X msg 430 138 send /oled/line/3;
#X msg 622 136 send /oled/line/4;
#X msg 839 135 send /oled/line/5;
#X connect 0 0 1 0;
#X connect 1 0 4 0;
#X connect 2 0 3 0;
#X connect 2 1 0 1;
#X connect 3 0 0 0;
#X connect 5 0 2 0;
#X connect 6 0 5 0;
#X connect 7 0 8 0;
#X connect 8 0 10 0;
#X connect 9 0 31 0;
#X connect 9 1 7 1;
#X connect 11 0 9 0;
#X connect 12 0 14 0;
#X connect 13 0 32 0;
#X connect 13 1 16 1;
#X connect 15 0 13 0;
#X connect 16 0 12 0;
#X connect 17 0 18 0;
#X connect 18 0 20 0;
#X connect 19 0 33 0;
#X connect 19 1 17 1;
#X connect 21 0 19 0;
#X connect 22 0 23 0;
#X connect 23 0 25 0;
#X connect 24 0 34 0;
#X connect 24 1 22 1;
#X connect 26 0 24 0;
#X connect 27 0 11 0;
#X connect 28 0 15 0;
#X connect 29 0 21 0;
#X connect 30 0 26 0;
#X connect 31 0 7 0;
#X connect 32 0 16 0;
#X connect 33 0 17 0;
#X connect 34 0 22 0;
#X restore 828 92 pd screenLines;
#X obj 388 232 metro 50;
#X obj 208 719 + 59;
#X obj 41 610 sel 100;
#X msg 41 643 1;
#X msg 87 644 0;
#X obj 46 700 s aux;
#X obj 389 655 r aux;
#X obj 389 677 print;
#X obj 113 538 route 0 25;
#X obj 116 701 sel 100;
#X msg 116 734 1;
#X msg 162 735 0;
#X obj 120 790 s fs;
#X obj 69 775 r fs;
#X obj 67 835 s aux;
#X connect 0 0 5 0;
#X connect 1 0 5 0;
#X connect 3 0 8 0;
#X connect 4 0 8 0;
#X connect 5 0 6 0;
#X connect 6 0 16 0;
#X connect 6 0 17 0;
#X connect 6 0 27 0;
#X connect 6 0 42 0;
#X connect 7 0 8 0;
#X connect 8 0 2 0;
#X connect 9 0 7 0;
#X connect 10 0 11 0;
#X connect 12 0 10 1;
#X connect 13 0 10 0;
#X connect 14 0 57 0;
#X connect 15 0 0 0;
#X connect 15 0 4 0;
#X connect 15 0 34 0;
#X connect 15 0 61 0;
#X connect 16 0 78 0;
#X connect 17 0 18 0;
#X connect 18 0 19 0;
#X connect 18 1 20 0;
#X connect 18 2 21 0;
#X connect 22 0 7 0;
#X connect 23 0 24 0;
#X connect 25 0 13 0;
#X connect 25 1 12 0;
#X connect 26 0 57 1;
#X connect 27 0 33 0;
#X connect 28 0 37 0;
#X connect 29 0 38 0;
#X connect 30 0 39 0;
#X connect 31 0 40 0;
#X connect 32 0 41 0;
#X connect 33 0 28 0;
#X connect 33 1 29 0;
#X connect 33 2 30 0;
#X connect 33 3 31 0;
#X connect 33 4 32 0;
#X connect 34 0 70 0;
#X connect 35 0 70 1;
#X connect 36 0 7 0;
#X connect 37 0 50 0;
#X connect 38 0 48 0;
#X connect 39 0 51 0;
#X connect 40 0 52 0;
#X connect 43 0 44 0;
#X connect 43 1 45 0;
#X connect 44 0 71 0;
#X connect 45 0 56 0;
#X connect 46 0 47 0;
#X connect 48 0 49 0;
#X connect 50 0 53 0;
#X connect 51 0 54 0;
#X connect 52 0 55 0;
#X connect 56 0 46 1;
#X connect 57 0 22 0;
#X connect 58 0 7 0;
#X connect 60 0 59 0;
#X connect 61 0 7 0;
#X connect 62 0 9 0;
#X connect 64 0 66 0;
#X connect 66 0 63 0;
#X connect 66 0 65 0;
#X connect 67 0 62 0;
#X connect 68 0 7 0;
#X connect 70 0 36 0;
#X connect 71 0 46 0;
#X connect 72 0 73 0;
#X connect 72 1 74 0;
#X connect 73 0 75 0;
#X connect 74 0 75 0;
#X connect 76 0 77 0;
#X connect 78 0 72 0;
#X connect 78 1 79 0;
#X connect 78 2 43 0;
#X connect 79 0 80 0;
#X connect 79 1 81 0;
#X connect 80 0 82 0;
#X connect 81 0 82 0;
