#N canvas 541 51 1082 940 10;
#X obj 273 718 osc~ 440;
#X obj 304 155 mtof;
#X obj 304 191 sig~;
#X text 352 43 note messages;
#X text 426 225 knob 1 controls overall pitch;
#X obj 726 596 bng 15 250 50 0 empty empty empty 17 7 0 10 #fcfcfc #000000 #000000;
#X obj 258 850 *~;
#X obj 726 703 line~;
#X msg 726 674 0 \$1;
#X msg 888 636 1 5;
#X obj 888 597 bng 15 250 50 0 empty empty empty 17 7 0 10 #fcfcfc #000000 #000000;
#X obj 304 96 unpack;
#X obj 393 98 sel 0;
#X text 437 99 selects note off messages so we can set decay time later;
#X text 348 162 convert it to signal so frequency will be constantly updated;
#X obj 304 44 inlet;
#X obj 258 896 outlet~;
#X obj 303 595 /~ 4;
#X obj 259 872 *~ 0.5;
#X text 25 10 synth voice with waveform change;
#X obj 726 638 f 10;
#X connect 0 0 6 0;
#X connect 1 0 2 0;
#X connect 2 0 17 0;
#X connect 5 0 20 0;
#X connect 6 0 18 0;
#X connect 7 0 6 1;
#X connect 8 0 7 0;
#X connect 9 0 7 0;
#X connect 10 0 9 0;
#X connect 11 0 1 0;
#X connect 11 1 12 0;
#X connect 12 0 5 0;
#X connect 12 1 10 0;
#X connect 15 0 11 0;
#X connect 17 0 0 0;
#X connect 18 0 16 0;
#X connect 20 0 8 0;
