#N canvas 716 341 935 511 10;
#X msg 88 138 \; pd dsp 1, f 10;
#X obj 88 70 loadbang;
#X obj 88 102 delay 100;
#X obj 355 113 r knob1;
#X obj 355 147 vsl 15 128 0 1 0 0 empty empty empty 0 -9 0 10 -262144
-1 -1 6883 1;
#X obj 418 147 vsl 15 128 0 1 0 0 empty empty empty 0 -9 0 10 -262144
-1 -1 12688 1;
#X obj 479 147 vsl 15 128 0 1 0 0 empty empty empty 0 -9 0 10 -262144
-1 -1 9785 1;
#X obj 541 147 vsl 15 128 0 1 0 0 empty empty empty 0 -9 0 10 -262144
-1 -1 3907 1;
#X obj 418 113 r knob2;
#X obj 479 113 r knob3;
#X obj 541 113 r knob4;
#X obj 650 148 vsl 15 128 0 1 0 0 empty empty empty 0 -9 0 10 -262144
-1 -1 0 1;
#X obj 755 148 vsl 15 128 0 1 0 0 empty empty empty 0 -9 0 10 -262144
-1 -1 9785 1;
#X obj 755 114 r vol;
#X obj 454 304 r notes;
#X obj 454 330 unpack;
#X floatatom 454 359 5 0 0 0 - - -, f 5;
#X floatatom 497 360 5 0 0 0 - - -, f 5;
#X obj 358 315 r aux;
#X obj 358 343 tgl 15 0 empty empty empty 17 7 0 10 -262144 -1 -1 0
1;
#X obj 652 304 r fs;
#X obj 652 332 tgl 15 0 empty empty empty 17 7 0 10 -262144 -1 -1 0
1;
#X obj 650 114 r exp;
#N canvas 120 269 1425 670 audioIO 0;
#X obj 510 275 dac~;
#X obj 600 45 catch~ outR;
#X obj 443 43 catch~ outL;
#X obj 159 87 adc~;
#X obj 144 399 pack 0 0 0 0, f 18;
#X obj 263 185 s~ inR;
#X obj 60 169 s~ inL;
#X msg 144 428 sendtyped /oled/vumeter iiii \$1 \$2 \$3 \$4;
#X obj 144 456 s oscOut;
#X obj 442 174 *~;
#X obj 599 186 *~;
#X obj 714 11 r vol;
#X obj 714 64 *;
#X obj 714 37 t f f;
#X msg 1028 300 print;
#X msg 1027 252 start;
#X msg 1029 278 stop;
#X obj 931 375 writesf~ 2;
#X msg 1016 215 open ./foo.wav;
#X msg 1151 230 open ./foo.wav;
#X msg 1207 257 1;
#X msg 1248 266 0;
#X obj 1149 307 readsf~ 2;
#X obj 318 340 * 12;
#X obj 318 286 pvu~;
#X obj 318 315 sqrt;
#X obj 261 336 * 12;
#X obj 261 282 pvu~;
#X obj 261 311 sqrt;
#X obj 144 276 pvu~;
#X obj 144 305 sqrt;
#X obj 206 280 pvu~;
#X obj 206 309 sqrt;
#X obj 450 109 tb_peakcomp~ -3 8 10 100 0;
#X obj 144 330 * 14;
#X obj 206 334 * 14;
#X obj 206 356 - 2;
#X obj 144 352 - 2;
#X obj 714 92 sig~;
#X obj 714 118 lop~ 2;
#X connect 1 0 33 1;
#X connect 2 0 33 0;
#X connect 3 0 6 0;
#X connect 3 0 29 0;
#X connect 3 1 5 0;
#X connect 3 1 31 0;
#X connect 4 0 7 0;
#X connect 7 0 8 0;
#X connect 9 0 27 0;
#X connect 9 0 0 0;
#X connect 10 0 24 0;
#X connect 10 0 0 1;
#X connect 11 0 13 0;
#X connect 12 0 38 0;
#X connect 13 0 12 0;
#X connect 13 1 12 1;
#X connect 14 0 17 0;
#X connect 15 0 17 0;
#X connect 16 0 17 0;
#X connect 18 0 17 0;
#X connect 19 0 22 0;
#X connect 20 0 22 0;
#X connect 21 0 22 0;
#X connect 23 0 4 3;
#X connect 24 0 25 0;
#X connect 25 0 23 0;
#X connect 26 0 4 2;
#X connect 27 0 28 0;
#X connect 28 0 26 0;
#X connect 29 0 30 0;
#X connect 30 0 34 0;
#X connect 31 0 32 0;
#X connect 32 0 35 0;
#X connect 33 0 9 0;
#X connect 33 1 10 0;
#X connect 34 0 37 0;
#X connect 35 0 36 0;
#X connect 36 0 4 1;
#X connect 37 0 4 0;
#X connect 38 0 39 0;
#X connect 39 0 10 1;
#X connect 39 0 9 1;
#X restore 86 229 pd audioIO;
#N canvas 184 261 1327 564 messageIO 0;
#X msg 566 125 port 4000;
#X obj 242 197 tgl 15 0 empty empty empty 17 7 0 10 -262144 -1 -1 1
1;
#X msg 313 123 connect localhost 4001;
#X obj 566 153 udpreceive;
#X obj 566 177 unpackOSC;
#X obj 242 125 packOSC;
#X obj 242 161 udpsend;
#X obj 242 97 r oscOut;
#X obj 448 40 t b b;
#X obj 448 12 loadbang;
#X msg 764 124 send /screenshot;
#X obj 763 12 r notes;
#X obj 764 50 route 83;
#X obj 764 72 sel 100;
#X obj 923 129 print takin-pic;
#X text 267 198 connected to mother ui;
#X obj 764 163 s oscOut;
#X obj 566 201 s oscIn;
#X text 890 43 screen shot hack -- not for production release;
#N canvas 10 50 633 581 LED 0;
#X msg 74 339 send /led \$1;
#X obj 75 137 % 8;
#X obj 75 86 r led;
#X msg 125 134 0;
#X obj 125 84 r quitting;
#X obj 218 69 loadbang;
#X obj 218 91 delay 100;
#X obj 74 368 s oscOut;
#X text 235 118 delay to make sure udp connected;
#X obj 89 235 sel 0 1 2 3 4 5 6 7, f 37;
#X msg 87 266 0;
#X msg 123 266 4;
#X msg 160 266 5;
#X msg 197 265 1;
#X msg 232 265 3;
#X msg 270 265 2;
#X msg 306 267 6;
#X msg 343 267 7;
#X connect 0 0 7 0;
#X connect 1 0 9 0;
#X connect 2 0 1 0;
#X connect 3 0 9 0;
#X connect 4 0 3 0;
#X connect 5 0 6 0;
#X connect 6 0 3 0;
#X connect 9 0 10 0;
#X connect 9 1 11 0;
#X connect 9 2 12 0;
#X connect 9 3 13 0;
#X connect 9 4 14 0;
#X connect 9 5 15 0;
#X connect 9 6 16 0;
#X connect 9 7 17 0;
#X connect 10 0 0 0;
#X connect 11 0 0 0;
#X connect 12 0 0 0;
#X connect 13 0 0 0;
#X connect 14 0 0 0;
#X connect 15 0 0 0;
#X connect 16 0 0 0;
#X connect 17 0 0 0;
#X restore 379 309 pd LED;
#N canvas 13 50 1215 407 OLED 0;
#X obj 110 173 list append;
#X obj 110 198 list trim;
#X obj 137 110 t b l;
#X msg 35 138 send /oled/line/1;
#X obj 110 223 s oscOut;
#X obj 137 78 list;
#X obj 135 44 r screenLine1;
#X obj 297 169 list append;
#X obj 297 194 list trim;
#X obj 324 106 t b l;
#X obj 297 219 s oscOut;
#X obj 324 74 list;
#X obj 505 198 list trim;
#X obj 532 110 t b l;
#X obj 505 223 s oscOut;
#X obj 532 78 list;
#X obj 505 173 list append;
#X obj 697 170 list append;
#X obj 697 195 list trim;
#X obj 724 107 t b l;
#X obj 697 220 s oscOut;
#X obj 724 75 list;
#X obj 914 170 list append;
#X obj 914 195 list trim;
#X obj 941 107 t b l;
#X obj 914 220 s oscOut;
#X obj 941 75 list;
#X obj 322 40 r screenLine2;
#X obj 530 44 r screenLine3;
#X obj 722 41 r screenLine4;
#X obj 939 41 r screenLine5;
#X msg 222 134 send /oled/line/2;
#X msg 430 138 send /oled/line/3;
#X msg 622 136 send /oled/line/4;
#X msg 839 135 send /oled/line/5;
#X connect 0 0 1 0;
#X connect 1 0 4 0;
#X connect 2 0 3 0;
#X connect 2 1 0 1;
#X connect 3 0 0 0;
#X connect 5 0 2 0;
#X connect 6 0 5 0;
#X connect 7 0 8 0;
#X connect 8 0 10 0;
#X connect 9 0 31 0;
#X connect 9 1 7 1;
#X connect 11 0 9 0;
#X connect 12 0 14 0;
#X connect 13 0 32 0;
#X connect 13 1 16 1;
#X connect 15 0 13 0;
#X connect 16 0 12 0;
#X connect 17 0 18 0;
#X connect 18 0 20 0;
#X connect 19 0 33 0;
#X connect 19 1 17 1;
#X connect 21 0 19 0;
#X connect 22 0 23 0;
#X connect 23 0 25 0;
#X connect 24 0 34 0;
#X connect 24 1 22 1;
#X connect 26 0 24 0;
#X connect 27 0 11 0;
#X connect 28 0 15 0;
#X connect 29 0 21 0;
#X connect 30 0 26 0;
#X connect 31 0 7 0;
#X connect 32 0 16 0;
#X connect 33 0 17 0;
#X connect 34 0 22 0;
#X restore 381 341 pd OLED;
#N canvas 6 50 450 300 quit 0;
#X obj 96 95 sel 1;
#X obj 96 149 delay 100;
#X msg 96 171 \; pd quit;
#X obj 96 117 t b b;
#X obj 170 150 s quitting;
#X obj 96 60 routeOSC /quitpd;
#X obj 96 26 r oscIn;
#X connect 0 0 3 0;
#X connect 1 0 2 0;
#X connect 3 0 1 0;
#X connect 3 1 4 0;
#X connect 5 0 0 0;
#X connect 6 0 5 0;
#X restore 379 415 pd quit;
#N canvas 10 50 516 343 keys 0;
#X obj 119 56 routeOSC /key;
#X obj 206 114 unpack;
#X floatatom 206 144 5 0 0 0 - - -, f 5;
#X floatatom 253 146 5 0 0 0 - - -, f 5;
#X obj 206 212 pack;
#X obj 206 247 s notes;
#X obj 253 173 / 1;
#X obj 206 171 + 59;
#X obj 119 112 sel 100;
#X msg 119 145 1;
#X msg 165 145 0;
#X obj 119 178 s aux;
#X obj 119 83 route 0;
#X obj 119 26 r oscIn;
#X obj 284 249 s notesRaw;
#X obj 39 181 s auxRaw;
#X connect 0 0 12 0;
#X connect 1 0 2 0;
#X connect 1 1 3 0;
#X connect 2 0 7 0;
#X connect 3 0 6 0;
#X connect 4 0 5 0;
#X connect 4 0 14 0;
#X connect 6 0 4 1;
#X connect 7 0 4 0;
#X connect 8 0 9 0;
#X connect 8 1 10 0;
#X connect 9 0 11 0;
#X connect 9 0 15 0;
#X connect 10 0 11 0;
#X connect 10 0 15 0;
#X connect 12 0 8 0;
#X connect 12 1 1 0;
#X connect 13 0 0 0;
#X restore 379 442 pd keys;
#N canvas 8 50 450 300 footSwitch 0;
#X obj 194 172 s fs;
#X obj 194 140 routeOSC /fs;
#X obj 194 107 r oscIn;
#X obj 254 173 s fsRaw;
#X connect 1 0 0 0;
#X connect 1 0 3 0;
#X connect 2 0 1 0;
#X restore 379 469 pd footSwitch;
#N canvas 12 50 1329 471 analog 0;
#X obj 123 123 routeOSC /knobs;
#X obj 909 266 s vol;
#X obj 123 153 unpack 0 0 0 0 0 0, f 129;
#X obj 909 199 change;
#X obj 1048 197 change;
#X obj 909 233 / 1024;
#X obj 1048 294 / 1024;
#X floatatom 123 312 5 0 0 0 - - -, f 5;
#X obj 197 341 tgl 15 0 empty empty empty 17 7 0 10 -262144 -1 -1 0
1;
#X obj 197 201 r knob1Override;
#X obj 123 209 change;
#X obj 123 340 s knob1;
#X floatatom 314 318 5 0 0 0 - - -, f 5;
#X obj 388 342 tgl 15 0 empty empty empty 17 7 0 10 -262144 -1 -1 0
1;
#X obj 314 210 change;
#X floatatom 507 317 5 0 0 0 - - -, f 5;
#X obj 581 341 tgl 15 0 empty empty empty 17 7 0 10 -262144 -1 -1 0
1;
#X obj 507 209 change;
#X floatatom 698 319 5 0 0 0 - - -, f 5;
#X obj 772 343 tgl 15 0 empty empty empty 17 7 0 10 -262144 -1 -1 0
1;
#X obj 698 211 change;
#X obj 314 341 s knob2;
#X obj 507 340 s knob3;
#X obj 698 342 s knob4;
#X obj 388 202 r knob2Override;
#X obj 581 201 r knob3Override;
#X obj 774 203 r knob4Override;
#X obj 123 262 override 20;
#X obj 123 288 / 1024;
#X obj 314 291 / 1024;
#X obj 507 290 / 1024;
#X obj 698 292 / 1024;
#X obj 123 89 r oscIn;
#X obj 36 268 s knob1Raw;
#X obj 223 273 s knob2Raw;
#X obj 420 270 s knob3Raw;
#X obj 617 272 s knob4Raw;
#X obj 1048 354 s exp;
#X obj 698 264 override 20;
#X obj 314 263 override 20;
#X obj 507 262 override 20;
#X obj 1048 263 override 20;
#X obj 1122 199 r expOverride;
#X obj 1122 319 tgl 15 0 empty empty empty 17 7 0 10 -262144 -1 -1
0 1;
#X obj 984 258 s expRaw;
#X floatatom 1048 327 5 0 0 0 - - -, f 5;
#X connect 0 0 2 0;
#X connect 2 0 10 0;
#X connect 2 1 14 0;
#X connect 2 2 17 0;
#X connect 2 3 20 0;
#X connect 2 4 3 0;
#X connect 2 5 4 0;
#X connect 3 0 5 0;
#X connect 4 0 41 0;
#X connect 4 0 44 0;
#X connect 5 0 1 0;
#X connect 6 0 45 0;
#X connect 7 0 11 0;
#X connect 9 0 27 1;
#X connect 10 0 27 0;
#X connect 10 0 33 0;
#X connect 12 0 21 0;
#X connect 14 0 34 0;
#X connect 14 0 39 0;
#X connect 15 0 22 0;
#X connect 17 0 35 0;
#X connect 17 0 40 0;
#X connect 18 0 23 0;
#X connect 20 0 36 0;
#X connect 20 0 38 0;
#X connect 24 0 39 1;
#X connect 25 0 40 1;
#X connect 26 0 38 1;
#X connect 27 0 28 0;
#X connect 27 1 8 0;
#X connect 28 0 7 0;
#X connect 29 0 12 0;
#X connect 30 0 15 0;
#X connect 31 0 18 0;
#X connect 32 0 0 0;
#X connect 38 0 31 0;
#X connect 38 1 19 0;
#X connect 39 0 29 0;
#X connect 39 1 13 0;
#X connect 40 0 30 0;
#X connect 40 1 16 0;
#X connect 41 0 6 0;
#X connect 41 1 43 0;
#X connect 42 0 41 1;
#X connect 45 0 37 0;
#X restore 380 502 pd analog;
#X text 353 279 stuff going out (from patch)...;
#X text 350 386 stuff coming in (to patch)...;
#X connect 0 0 3 0;
#X connect 2 0 6 0;
#X connect 3 0 4 0;
#X connect 4 0 17 0;
#X connect 5 0 6 0;
#X connect 6 0 1 0;
#X connect 7 0 5 0;
#X connect 8 0 2 0;
#X connect 8 1 0 0;
#X connect 9 0 8 0;
#X connect 10 0 16 0;
#X connect 12 0 13 0;
#X connect 13 0 10 0;
#X connect 13 0 14 0;
#X restore 88 258 pd messageIO;
#N canvas 111 144 1671 761 MIDI 0;
#X obj 44 158 spigot 1;
#X obj 132 114 r midiInGate;
#X obj 44 188 t f b;
#X obj 44 226 / 127;
#X obj 44 248 s knob1;
#X obj 96 221 s knob1Override;
#X obj 44 119 change;
#X obj 243 154 spigot 1;
#X obj 331 110 r midiInGate;
#X obj 243 184 t f b;
#X obj 243 222 / 127;
#X obj 243 115 change;
#X obj 437 150 spigot 1;
#X obj 525 106 r midiInGate;
#X obj 437 180 t f b;
#X obj 437 218 / 127;
#X obj 437 111 change;
#X obj 635 149 spigot 1;
#X obj 723 105 r midiInGate;
#X obj 635 179 t f b;
#X obj 635 217 / 127;
#X obj 635 110 change;
#X obj 243 244 s knob2;
#X obj 437 240 s knob3;
#X obj 635 239 s knob4;
#X obj 295 217 s knob2Override;
#X obj 490 213 s knob3Override;
#X obj 687 211 s knob4Override;
#X obj 877 101 notein;
#X obj 877 137 pack;
#X obj 877 169 spigot 1;
#X obj 832 538 spigot 1;
#X obj 832 570 unpack;
#X obj 832 602 noteout;
#X obj 951 117 r midiInGate;
#X obj 877 202 s notes;
#X obj 885 501 r midiOutGate;
#X obj 41 562 i;
#X obj 41 584 change;
#X obj 41 516 spigot 1;
#X obj 94 484 r midiOutGate;
#X obj 213 564 i;
#X obj 213 586 change;
#X obj 213 518 spigot 1;
#X obj 266 486 r midiOutGate;
#X obj 383 568 i;
#X obj 383 590 change;
#X obj 383 522 spigot 1;
#X obj 436 490 r midiOutGate;
#X obj 561 565 i;
#X obj 561 587 change;
#X obj 561 519 spigot 1;
#X obj 614 487 r midiOutGate;
#X obj 561 543 / 8;
#X obj 383 546 / 8;
#X obj 213 542 / 8;
#X obj 41 540 / 8;
#X obj 41 606 ctlout 21 1;
#X obj 213 608 ctlout 22 1;
#X obj 381 612 ctlout 23 1;
#X obj 561 609 ctlout 24 1;
#X obj 41 443 r knob1Raw;
#X obj 213 454 r knob2Raw;
#X obj 383 450 r knob3Raw;
#X obj 561 460 r knob4Raw;
#X obj 832 464 r notesRaw;
#X text 744 32 MIDI in;
#X text 563 404 MIDI out;
#X obj 437 84 ctlin 23 1;
#X obj 635 83 ctlin 24 1;
#X obj 44 91 ctlin 21 1;
#X obj 243 87 ctlin 22 1;
#X text 702 403 the 'raw' stuff comes directly from built in controls
;
#X obj 1084 572 i;
#X obj 1084 594 change;
#X obj 1084 526 spigot 1;
#X obj 1137 494 r midiOutGate;
#X obj 1084 467 r auxRaw;
#X obj 1084 550 * 127;
#X obj 1084 620 ctlout 25 1;
#X obj 1085 141 spigot 1;
#X obj 1173 97 r midiInGate;
#X obj 1085 82 ctlin 25 1;
#X obj 1085 229 s aux;
#X obj 1265 563 i;
#X obj 1265 585 change;
#X obj 1265 517 spigot 1;
#X obj 1318 485 r midiOutGate;
#X obj 1265 541 * 127;
#X obj 1265 458 r fsRaw;
#X obj 1265 611 ctlout 64 1;
#X obj 1278 135 spigot 1;
#X obj 1366 91 r midiInGate;
#X obj 1278 84 ctlin 64 1;
#X obj 1278 232 s fs;
#X obj 1278 165 >= 64;
#X obj 1278 197 change;
#X obj 1085 170 >= 64;
#X obj 1085 202 change;
#N canvas 230 143 450 300 program-change-in 0;
#X obj 89 42 pgmin;
#X obj 89 263 s oscOut;
#X msg 89 234 send /pgmchg \$1;
#X obj 89 72 spigot 1;
#X obj 142 43 r midiInGate;
#X obj 180 71 loadbang;
#X obj 89 163 spigot 0;
#X msg 180 128 1;
#X obj 180 99 delay 500;
#X msg 175 166 0;
#X obj 89 197 t i b b;
#X text 219 152 speed limit these;
#X text 43 4 program change in loads new patch;
#X connect 0 0 3 0;
#X connect 2 0 1 0;
#X connect 3 0 6 0;
#X connect 4 0 3 1;
#X connect 5 0 8 0;
#X connect 6 0 10 0;
#X connect 7 0 6 1;
#X connect 8 0 7 0;
#X connect 9 0 6 1;
#X connect 10 0 2 0;
#X connect 10 1 8 0;
#X connect 10 2 9 0;
#X restore 883 31 pd program-change-in;
#X obj 1467 566 i;
#X obj 1467 588 change;
#X obj 1467 520 spigot 1;
#X obj 1520 488 r midiOutGate;
#X obj 1467 544 / 8;
#X obj 1467 610 ctlout 26 1;
#X obj 1467 461 r expRaw;
#X obj 1471 145 spigot 1;
#X obj 1559 101 r midiInGate;
#X obj 1471 175 t f b;
#X obj 1471 213 / 127;
#X obj 1471 106 change;
#X obj 1471 79 ctlin 26 1;
#X obj 1523 208 s expOverride;
#X obj 1471 235 s exp;
#X connect 0 0 2 0;
#X connect 1 0 0 1;
#X connect 2 0 3 0;
#X connect 2 1 5 0;
#X connect 3 0 4 0;
#X connect 6 0 0 0;
#X connect 7 0 9 0;
#X connect 8 0 7 1;
#X connect 9 0 10 0;
#X connect 9 1 25 0;
#X connect 10 0 22 0;
#X connect 11 0 7 0;
#X connect 12 0 14 0;
#X connect 13 0 12 1;
#X connect 14 0 15 0;
#X connect 14 1 26 0;
#X connect 15 0 23 0;
#X connect 16 0 12 0;
#X connect 17 0 19 0;
#X connect 18 0 17 1;
#X connect 19 0 20 0;
#X connect 19 1 27 0;
#X connect 20 0 24 0;
#X connect 21 0 17 0;
#X connect 28 0 29 0;
#X connect 28 1 29 1;
#X connect 29 0 30 0;
#X connect 30 0 35 0;
#X connect 31 0 32 0;
#X connect 32 0 33 0;
#X connect 32 1 33 1;
#X connect 34 0 30 1;
#X connect 36 0 31 1;
#X connect 37 0 38 0;
#X connect 38 0 57 0;
#X connect 39 0 56 0;
#X connect 40 0 39 1;
#X connect 41 0 42 0;
#X connect 42 0 58 0;
#X connect 43 0 55 0;
#X connect 44 0 43 1;
#X connect 45 0 46 0;
#X connect 46 0 59 0;
#X connect 47 0 54 0;
#X connect 48 0 47 1;
#X connect 49 0 50 0;
#X connect 50 0 60 0;
#X connect 51 0 53 0;
#X connect 52 0 51 1;
#X connect 53 0 49 0;
#X connect 54 0 45 0;
#X connect 55 0 41 0;
#X connect 56 0 37 0;
#X connect 61 0 39 0;
#X connect 62 0 43 0;
#X connect 63 0 47 0;
#X connect 64 0 51 0;
#X connect 65 0 31 0;
#X connect 68 0 16 0;
#X connect 69 0 21 0;
#X connect 70 0 6 0;
#X connect 71 0 11 0;
#X connect 73 0 74 0;
#X connect 74 0 79 0;
#X connect 75 0 78 0;
#X connect 76 0 75 1;
#X connect 77 0 75 0;
#X connect 78 0 73 0;
#X connect 80 0 97 0;
#X connect 81 0 80 1;
#X connect 82 0 80 0;
#X connect 84 0 85 0;
#X connect 85 0 90 0;
#X connect 86 0 88 0;
#X connect 87 0 86 1;
#X connect 88 0 84 0;
#X connect 89 0 86 0;
#X connect 91 0 95 0;
#X connect 92 0 91 1;
#X connect 93 0 91 0;
#X connect 95 0 96 0;
#X connect 96 0 94 0;
#X connect 97 0 98 0;
#X connect 98 0 83 0;
#X connect 100 0 101 0;
#X connect 101 0 105 0;
#X connect 102 0 104 0;
#X connect 103 0 102 1;
#X connect 104 0 100 0;
#X connect 106 0 102 0;
#X connect 107 0 109 0;
#X connect 108 0 107 1;
#X connect 109 0 110 0;
#X connect 109 1 113 0;
#X connect 110 0 114 0;
#X connect 111 0 107 0;
#X connect 112 0 111 0;
#X restore 89 287 pd MIDI;
#X connect 1 0 2 0;
#X connect 2 0 0 0;
#X connect 3 0 4 0;
#X connect 8 0 5 0;
#X connect 9 0 6 0;
#X connect 10 0 7 0;
#X connect 13 0 12 0;
#X connect 14 0 15 0;
#X connect 15 0 16 0;
#X connect 15 1 17 0;
#X connect 18 0 19 0;
#X connect 20 0 21 0;
#X connect 22 0 11 0;
