#N canvas 596 142 733 536 10;
#X obj 124 358 readsf~ 2;
#X obj 137 449 dac~, f 6;
#X msg 320 -47 \; pd dsp 1, f 10;
#X obj 320 -77 loadbang;
#X msg 57 314 1;
#X msg 149 281 open /tmp/sound.wav;
#X obj 78 229 t b b;
#X obj 57 275 delay 100;
#X obj 207 50 bng 50 250 50 0 empty empty empty 17 7 0 10 -262144 -1
-1;
#X obj 267 52 vsl 25 128 0 100 0 0 empty empty empty 0 -9 0 10 -262144
-1 -1 2840 1;
#X obj 133 405 *~;
#X obj 192 401 *~;
#X obj 312 219 / 100;
#X obj 312 241 t f f;
#X obj 312 263 *;
#X msg 279 -3 20;
#X text 208 28 play;
#X text 267 26 vol;
#X obj 396 47 cnv 15 100 60 empty empty empty 20 12 0 14 -233017 -66577
0;
#X connect 0 0 10 0;
#X connect 0 1 11 0;
#X connect 3 0 2 0;
#X connect 3 0 15 0;
#X connect 4 0 0 0;
#X connect 5 0 0 0;
#X connect 6 0 7 0;
#X connect 6 1 5 0;
#X connect 7 0 4 0;
#X connect 8 0 6 0;
#X connect 9 0 12 0;
#X connect 10 0 1 0;
#X connect 11 0 1 1;
#X connect 12 0 13 0;
#X connect 13 0 14 0;
#X connect 13 1 14 1;
#X connect 14 0 11 1;
#X connect 14 0 10 1;
#X connect 15 0 9 0;
#X coords 0 -1 1 1 100 175 2 200 20;
